<?xml version="1.0" standalone="no"?>
<!DOCTYPE svg PUBLIC "-//W3C//DTD SVG 20010904//EN"
 "http://www.w3.org/TR/2001/REC-SVG-20010904/DTD/svg10.dtd">
<svg version="1.0" xmlns="http://www.w3.org/2000/svg"
 width="250.000000pt" height="250.000000pt" viewBox="0 0 250.000000 250.000000"
 preserveAspectRatio="xMidYMid meet">
<metadata>
Created by potrace 1.16, written by Peter Selinger 2001-2019
</metadata>
<g transform="translate(0.000000,250.000000) scale(0.100000,-0.100000)"
fill="#00FF99" stroke="none">
<path d="M1492 2360 c-2 -38 0 -41 19 -35 15 5 19 4 15 -4 -9 -14 22 -14 63 0
48 17 37 27 -24 22 -34 -2 -55 0 -55 7 0 5 10 10 22 10 24 0 19 10 -7 14 -9 1
-20 8 -24 15 -4 7 -8 -6 -9 -29z M1332 2340 c5 -17 13 -29 16 -26 3 3 11 1 18
-5 7 -5 27 -7 46 -4 18 3 37 6 43 5 10 -2 23 26 24 50 0 12 -2 12 -13 -2 -26
-35 -126 -45 -126 -12 0 7 -4 15 -10 19 -5 3 -5 -7 2 -25z M1290 2352 c0 -7
-4 -11 -9 -8 -5 4 -7 -3 -4 -14 3 -11 13 -20 23 -20 10 0 20 -6 23 -12 2 -7 7
-11 10 -8 3 3 -6 21 -19 40 -13 19 -24 29 -24 22z M1230 2319 c0 -6 -8 -9 -19
-6 -14 3 -17 0 -14 -14 5 -18 44 -28 42 -11 -4 26 3 30 21 12 22 -22 40 -26
40 -8 0 6 -3 8 -7 5 -3 -4 -12 2 -20 13 -15 21 -43 27 -43 9z M1645 2321 c-33
-7 -34 -28 -1 -23 21 4 43 19 35 25 -2 2 -17 1 -34 -2z M1683 2299 c-26 -9
-39 -29 -20 -29 43 0 170 -92 183 -132 3 -10 9 -16 14 -13 12 7 38 -79 45
-150 3 -33 1 -118 -5 -190 -33 -399 -73 -540 -189 -667 -28 -31 -51 -61 -51
-67 0 -6 -4 -11 -10 -11 -5 0 6 -30 24 -67 18 -38 39 -83 47 -102 8 -19 23
-54 35 -77 l20 -42 -23 -11 c-18 -8 -23 -19 -23 -47 0 -24 -9 -49 -24 -69 -14
-18 -21 -36 -17 -41 27 -30 108 -442 111 -561 0 -38 40 -31 40 7 0 50 -51 349
-81 479 -20 82 -19 131 1 131 6 0 10 12 10 28 0 15 7 36 15 46 8 10 12 23 8
29 -3 6 -2 7 4 4 5 -4 19 3 31 13 27 25 36 25 29 1 -7 -29 8 -48 25 -30 19 21
20 39 3 39 -14 0 -20 12 -16 34 3 13 -62 105 -74 106 -15 0 -45 37 -37 46 4 4
2 4 -4 1 -6 -3 -30 12 -53 33 -24 22 -36 37 -27 34 9 -3 16 -1 16 5 0 6 -6 11
-12 11 -7 0 -1 11 12 24 14 13 28 21 33 19 4 -2 7 2 7 9 0 8 8 21 18 29 23 21
72 78 72 84 0 3 12 31 25 62 14 31 24 62 21 69 -2 6 1 22 8 36 55 105 93 698
45 698 -6 0 -9 6 -8 13 3 18 -21 77 -32 77 -4 0 -6 6 -3 14 6 15 -62 83 -78
78 -11 -3 -61 23 -80 41 -9 9 -21 11 -35 6z m14 -26 c-4 -3 -10 -3 -14 0 -3 4
0 7 7 7 7 0 10 -3 7 -7z m120 -39 c-3 -3 -12 -4 -19 -1 -8 3 -5 6 6 6 11 1 17
-2 13 -5z m-57 -1319 c0 -3 -2 -5 -5 -5 -3 0 -5 2 -5 5 0 3 2 5 5 5 3 0 5 -2
5 -5z m30 -30 c0 -3 -2 -5 -5 -5 -3 0 -5 2 -5 5 0 3 2 5 5 5 3 0 5 -2 5 -5z
m37 -55 c15 0 10 -43 -5 -46 -7 -1 -8 0 -2 3 5 2 10 9 10 14 0 6 -3 8 -7 6
-11 -7 -27 14 -31 38 -2 19 -2 19 11 3 8 -10 19 -18 24 -18z m53 -75 c0 -3 -2
-5 -5 -5 -3 0 -5 2 -5 5 0 3 2 5 5 5 3 0 5 -2 5 -5z M1160 2280 c0 -11 5 -20
10 -20 6 0 10 9 10 20 0 11 -4 20 -10 20 -5 0 -10 -9 -10 -20z M1350 2295 c0
-3 2 -5 5 -5 3 0 5 2 5 5 0 3 -2 5 -5 5 -3 0 -5 -2 -5 -5z M1025 2252 c-44
-32 -96 -195 -97 -302 0 -60 -11 -90 -33 -90 -8 0 -17 -12 -20 -27 -3 -16 -11
-45 -17 -65 -11 -39 -6 -77 29 -204 7 -28 11 -60 7 -70 -5 -16 -4 -16 5 -4 9
13 11 13 11 -2 0 -10 5 -18 10 -18 7 0 9 -15 4 -42 -3 -24 -8 -54 -10 -67 -1
-13 -7 -27 -12 -30 -14 -9 -42 -72 -42 -93 0 -11 -9 -31 -20 -45 -11 -14 -17
-30 -13 -37 9 -13 11 -27 16 -93 4 -50 26 -113 39 -113 4 0 15 11 24 25 l17
26 16 -33 c8 -18 18 -35 21 -38 20 -17 -11 -61 -62 -89 l-43 -23 -37 23 c-20
13 -39 34 -43 47 -18 68 -35 201 -30 230 9 48 -27 38 -93 -25 -7 -7 -17 -13
-20 -13 -4 0 -12 -10 -17 -22 -6 -13 -16 -22 -23 -21 -7 2 -12 -5 -12 -15 0
-11 -3 -13 -8 -6 -4 7 -14 -2 -25 -24 -18 -34 -18 -35 0 -21 10 8 25 23 34 34
10 12 31 20 54 21 35 2 64 24 65 50 0 7 6 14 14 17 10 4 15 -12 19 -71 3 -43
9 -88 12 -102 6 -20 5 -22 -5 -10 -10 13 -11 12 -6 -3 3 -10 6 -31 6 -45 0
-21 2 -24 10 -12 9 13 10 13 11 0 1 -8 1 -19 0 -24 -1 -5 4 -6 12 -3 7 2 21
-1 31 -9 18 -13 18 -14 -5 -33 -13 -11 -27 -20 -30 -21 -23 -1 -14 -41 25
-113 129 -238 226 -448 226 -488 0 -10 4 -20 9 -23 5 -3 12 -18 15 -33 22 -88
28 -103 42 -103 11 0 14 5 9 17 -3 10 -20 58 -37 108 -16 50 -36 104 -44 120
-7 17 -30 68 -50 115 -19 47 -69 150 -110 229 -41 80 -71 147 -67 151 5 4 31
24 58 46 28 21 52 41 55 45 3 3 22 16 44 28 38 24 55 19 56 -14 0 -5 11 -37
24 -70 14 -32 22 -63 20 -67 -3 -4 0 -8 5 -8 6 0 11 -8 11 -18 0 -10 7 -27 15
-38 8 -10 15 -27 15 -37 0 -9 4 -25 9 -35 18 -35 33 -88 37 -125 2 -20 12 -56
23 -80 23 -51 65 -208 81 -299 11 -62 14 -68 36 -68 13 0 24 3 24 8 0 11 -27
127 -54 232 -39 152 -110 384 -137 446 -10 23 -21 55 -25 70 -4 16 -10 34 -14
39 -4 6 -15 33 -26 60 -10 28 -21 52 -24 55 -3 3 -14 25 -25 50 -11 25 -22 47
-26 50 -3 3 -19 39 -35 80 -35 90 -39 188 -10 232 18 28 47 147 39 161 -2 4
-8 5 -13 2 -12 -7 -22 11 -32 59 -5 23 -14 61 -19 86 -23 101 -23 119 1 138
l23 19 -24 17 c-16 12 -20 20 -11 23 6 3 9 9 6 15 -15 23 34 -17 54 -45 20
-29 22 -30 22 -9 0 12 -6 22 -14 22 -11 0 -14 9 -11 33 2 17 6 66 9 107 6 90
36 215 65 270 22 42 22 44 6 32z m-175 -1067 c0 -3 -2 -5 -5 -5 -3 0 -5 2 -5
5 0 3 2 5 5 5 3 0 5 -2 5 -5z m40 -110 c0 -3 -2 -5 -5 -5 -3 0 -5 2 -5 5 0 3
2 5 5 5 3 0 5 -2 5 -5z m7 -72 c-4 -3 -7 0 -7 7 0 7 3 10 7 7 3 -4 3 -10 0
-14z M1140 2245 c0 -3 2 -5 5 -5 3 0 5 2 5 5 0 3 -2 5 -5 5 -3 0 -5 -2 -5 -5z
M1900 2175 c0 -3 2 -5 5 -5 3 0 5 2 5 5 0 3 -2 5 -5 5 -3 0 -5 -2 -5 -5z
M1900 2150 c0 -7 3 -10 7 -7 3 4 3 10 0 14 -4 3 -7 0 -7 -7z M1910 2125 c0 -3
2 -5 5 -5 3 0 5 2 5 5 0 3 -2 5 -5 5 -3 0 -5 -2 -5 -5z M1853 2103 c4 -3 10
-3 14 0 3 4 0 7 -7 7 -7 0 -10 -3 -7 -7z M1861 2074 c0 -11 3 -14 6 -6 3 7 2
16 -1 19 -3 4 -6 -2 -5 -13z M1265 1890 c-3 -5 -2 -10 3 -10 5 0 22 -12 38
-27 16 -16 40 -35 54 -44 37 -25 21 -30 -33 -12 -63 21 -144 5 -190 -38 l-32
-28 38 -1 c30 0 37 -4 37 -19 0 -53 90 -69 162 -29 31 18 39 27 35 45 -3 17 0
23 14 23 12 0 19 -7 19 -20 0 -11 -4 -20 -9 -20 -5 0 -11 -9 -14 -20 -7 -29 0
-25 23 13 30 48 26 77 -15 110 -39 31 -46 52 -15 44 31 -8 12 13 -26 29 -39
16 -80 18 -89 4z m65 -111 c12 -8 9 -9 -11 -5 -26 6 -101 -5 -144 -20 l-20 -6
20 15 c36 26 127 36 155 16z m-70 -24 c0 -3 -2 -5 -5 -5 -3 0 -5 2 -5 5 0 3 2
5 5 5 3 0 5 -2 5 -5z m27 -2 c-4 -3 -10 -3 -14 0 -3 4 0 7 7 7 7 0 10 -3 7 -7z
m55 -10 c25 -22 23 -33 -8 -33 -14 0 -23 -4 -19 -10 4 -7 -12 -10 -45 -9 -34
2 -47 5 -38 11 9 6 3 8 -17 4 -16 -3 -25 -3 -19 0 7 3 10 14 7 24 -7 27 23 27
37 0 15 -27 38 -25 52 5 13 29 25 31 50 8z M1683 1849 c2 -13 -60 -49 -85 -49
-9 0 -20 -9 -23 -20 -3 -11 -11 -20 -16 -20 -14 0 -7 -69 8 -74 9 -4 13 4 13
24 0 18 5 30 13 30 21 0 28 -12 16 -27 -7 -8 -8 -13 -1 -13 5 0 15 7 22 15 13
16 81 16 87 -1 2 -7 -8 -9 -27 -6 -25 3 -29 1 -24 -12 8 -21 38 -21 59 0 21
21 45 3 27 -19 -10 -11 -4 -14 33 -15 46 0 59 11 28 22 -10 3 -33 17 -52 31
-19 14 -45 25 -57 25 -13 0 -24 5 -24 10 0 24 90 -6 117 -38 21 -27 38 -27 28
0 -12 30 -68 52 -132 53 -61 0 -82 10 -45 21 46 14 121 59 109 66 -18 12 -77
10 -74 -3z m-63 -84 c0 -3 -2 -5 -5 -5 -3 0 -5 2 -5 5 0 3 2 5 5 5 3 0 5 -2 5
-5z m37 -22 c-4 -3 -10 -3 -14 0 -3 4 0 7 7 7 7 0 10 -3 7 -7z M1820 1765 c0
-3 2 -5 5 -5 3 0 5 2 5 5 0 3 -2 5 -5 5 -3 0 -5 -2 -5 -5z M943 1719 c-16 -16
5 -63 22 -49 12 10 9 60 -4 60 -4 0 -12 -5 -18 -11z M905 1690 c-3 -5 -1 -10
4 -10 6 0 11 5 11 10 0 6 -2 10 -4 10 -3 0 -8 -4 -11 -10z M1626 1692 c-4 -6
-14 -8 -24 -5 -12 4 -9 -2 8 -18 44 -42 80 -60 112 -57 53 5 44 25 -17 38 -42
9 -58 17 -64 33 -5 13 -10 16 -15 9z M1547 1668 c-2 -7 0 -22 6 -33 6 -11 16
-42 22 -69 6 -28 17 -52 25 -54 8 -3 11 1 7 10 -3 9 -11 41 -18 72 -8 31 -17
56 -22 56 -4 0 -6 4 -2 9 3 5 1 12 -4 15 -5 4 -11 0 -14 -6z M1360 1665 c0 -3
2 -5 5 -5 3 0 5 2 5 5 0 3 -2 5 -5 5 -3 0 -5 -2 -5 -5z M1580 1665 c0 -3 2 -5
5 -5 3 0 5 2 5 5 0 3 -2 5 -5 5 -3 0 -5 -2 -5 -5z M1420 1645 c0 -3 2 -5 5 -5
3 0 5 2 5 5 0 3 -2 5 -5 5 -3 0 -5 -2 -5 -5z M1590 1645 c0 -3 2 -5 5 -5 3 0
5 2 5 5 0 3 -2 5 -5 5 -3 0 -5 -2 -5 -5z M1610 1625 c0 -3 2 -5 5 -5 3 0 5 2
5 5 0 3 -2 5 -5 5 -3 0 -5 -2 -5 -5z M938 1609 c6 -7 12 -21 12 -32 0 -10 5
-15 10 -12 17 11 11 34 -12 46 -19 9 -21 9 -10 -2z M1335 1537 c-17 -13 -17
-15 0 -55 11 -23 24 -42 29 -43 6 -1 27 -2 46 -3 20 -1 42 -6 49 -10 27 -17
128 -18 134 -1 4 8 2 15 -3 15 -5 0 -16 7 -25 16 -13 13 -18 14 -31 3 -26 -22
-55 -21 -75 2 -17 19 -22 21 -45 10 -29 -13 -54 -1 -54 25 0 8 -6 14 -12 14
-8 0 -9 3 -3 8 9 7 19 32 12 32 -2 0 -11 -6 -22 -13z M1425 1401 c-3 -6 1 -11
9 -11 23 0 19 -15 -4 -17 -11 -1 -20 2 -20 8 0 14 -26 11 -40 -6 -7 -8 -18
-14 -24 -14 -22 4 -67 -14 -63 -25 2 -6 -6 -15 -17 -21 -29 -15 -33 -45 -7
-52 12 -3 21 -9 21 -13 0 -18 103 -111 126 -112 26 -3 32 -13 12 -21 -7 -3 -1
-6 14 -6 29 -1 80 27 131 72 30 26 12 30 -20 4 -15 -11 -135 -1 -178 16 -37
14 -96 67 -89 79 6 9 122 0 139 -11 6 -3 55 -8 110 -11 73 -4 99 -8 98 -17 -3
-15 23 -18 31 -4 3 4 -3 16 -14 26 -11 10 -17 22 -14 26 3 5 0 9 -6 9 -7 0
-10 6 -7 14 4 9 -5 19 -24 26 -16 7 -33 19 -37 26 -4 8 -22 18 -40 23 -28 8
-32 7 -32 -9 0 -10 -6 -20 -13 -23 -8 -3 -13 4 -12 21 0 26 -18 41 -30 23z
m85 -36 c0 -3 -2 -5 -5 -5 -3 0 -5 2 -5 5 0 3 2 5 5 5 3 0 5 -2 5 -5z m10 -33
c14 -5 30 -8 35 -5 6 2 22 -8 35 -22 l23 -25 -66 0 c-37 0 -67 4 -67 8 0 5
-19 9 -42 10 -77 3 -117 12 -112 27 9 23 141 28 194 7z M1350 1325 c0 -3 2 -5
5 -5 3 0 5 2 5 5 0 3 -2 5 -5 5 -3 0 -5 -2 -5 -5z M890 1375 c0 -3 2 -5 5 -5
3 0 5 2 5 5 0 3 -2 5 -5 5 -3 0 -5 -2 -5 -5z M900 1355 c0 -3 2 -5 5 -5 3 0 5
2 5 5 0 3 -2 5 -5 5 -3 0 -5 -2 -5 -5z M930 1305 c0 -3 2 -5 5 -5 3 0 5 2 5 5
0 3 -2 5 -5 5 -3 0 -5 -2 -5 -5z M941 1291 c-21 -14 -7 -93 30 -162 18 -32 61
-91 98 -131 36 -40 95 -109 131 -153 85 -105 159 -183 180 -190 9 -3 22 -17
28 -30 6 -14 16 -25 22 -25 17 0 -3 30 -57 84 -26 28 -48 52 -48 55 0 3 -12
18 -26 33 -13 14 -31 39 -39 55 -8 15 -26 41 -40 57 -14 16 -24 32 -23 36 1 5
-4 11 -13 14 -10 4 -13 2 -8 -7 4 -6 -19 15 -50 48 -88 91 -174 230 -162 261
9 24 -8 64 -23 55z M990 1217 c-1 -24 30 -64 123 -161 38 -39 69 -79 70 -89 1
-10 7 -15 14 -13 7 3 13 1 13 -4 0 -4 15 -12 33 -15 17 -4 35 -12 38 -17 9
-14 231 -10 240 4 4 7 9 7 13 -1 11 -18 28 -13 22 7 -5 13 1 17 24 19 28 2 29
1 28 -40 -1 -23 0 -58 1 -77 1 -32 3 -33 13 -15 8 12 12 59 11 120 -1 55 3
105 7 110 5 6 5 17 1 24 -7 11 -10 11 -16 0 -6 -9 -10 -8 -16 7 -6 17 -8 17
-19 -8 -7 -15 -17 -25 -22 -22 -11 7 -58 -13 -119 -49 -17 -9 -23 -9 -26 1 -3
6 -15 12 -28 12 -13 0 -27 5 -31 11 -4 8 -9 7 -15 -2 -6 -10 -9 -7 -9 10 0 19
-3 22 -12 13 -9 -9 -17 -5 -34 13 -13 14 -30 25 -38 25 -8 0 -16 5 -18 11 -5
15 -58 0 -58 -16 0 -7 6 -16 13 -18 7 -4 6 -6 -5 -6 -18 -1 -48 24 -48 40 0 5
-7 9 -16 9 -9 0 -12 5 -8 12 5 8 2 9 -9 5 -10 -3 -17 -2 -17 4 0 6 -13 24 -30
39 -16 15 -30 26 -30 23 0 -3 -9 5 -20 18 -10 13 -19 20 -20 16z m200 -182 c0
-3 -2 -5 -5 -5 -3 0 -5 2 -5 5 0 3 2 5 5 5 3 0 5 -2 5 -5z m40 -4 c0 -6 -4
-13 -10 -16 -5 -3 -10 1 -10 9 0 9 5 16 10 16 6 0 10 -4 10 -9z m37 -8 c-4 -3
-7 0 -7 7 0 7 3 10 7 7 3 -4 3 -10 0 -14z m23 12 c0 -3 -2 -5 -5 -5 -3 0 -5 2
-5 5 0 3 2 5 5 5 3 0 5 -2 5 -5z m310 -20 c0 -3 -2 -5 -5 -5 -3 0 -5 2 -5 5 0
3 2 5 5 5 3 0 5 -2 5 -5z m-343 -11 c-3 -3 -12 -4 -19 -1 -8 3 -5 6 6 6 11 1
17 -2 13 -5z m63 -9 c0 -3 -2 -5 -5 -5 -3 0 -5 2 -5 5 0 3 2 5 5 5 3 0 5 -2 5
-5z m247 -2 c-4 -3 -10 -3 -14 0 -3 4 0 7 7 7 7 0 10 -3 7 -7z m-337 -8 c0 -3
-2 -5 -5 -5 -3 0 -5 2 -5 5 0 3 2 5 5 5 3 0 5 -2 5 -5z m50 -10 c0 -8 -7 -11
-20 -8 -11 3 -20 8 -20 12 0 4 9 7 20 8 11 1 20 -4 20 -12z m25 5 c3 -5 1 -10
-4 -10 -6 0 -11 5 -11 10 0 6 2 10 4 10 3 0 8 -4 11 -10z m55 -5 c0 -3 -2 -5
-5 -5 -3 0 -5 2 -5 5 0 3 2 5 5 5 3 0 5 -2 5 -5z m167 -2 c-4 -3 -10 -3 -14 0
-3 4 0 7 7 7 7 0 10 -3 7 -7z m23 2 c0 -3 -2 -5 -5 -5 -3 0 -5 2 -5 5 0 3 2 5
5 5 3 0 5 -2 5 -5z m-83 -22 c-4 -3 -7 0 -7 7 0 7 3 10 7 7 3 -4 3 -10 0 -14z
m23 12 c0 -3 -2 -5 -5 -5 -3 0 -5 2 -5 5 0 3 2 5 5 5 3 0 5 -2 5 -5z m-147
-12 c-7 -2 -21 -2 -30 0 -10 3 -4 5 12 5 17 0 24 -2 18 -5z m64 0 c-4 -3 -10
-3 -14 0 -3 4 0 7 7 7 7 0 10 -3 7 -7z m43 2 c0 -3 -2 -5 -5 -5 -3 0 -5 2 -5
5 0 3 2 5 5 5 3 0 5 -2 5 -5z m90 0 c0 -3 -2 -5 -5 -5 -3 0 -5 2 -5 5 0 3 2 5
5 5 3 0 5 -2 5 -5z M1810 1155 c0 -3 2 -5 5 -5 3 0 5 2 5 5 0 3 -2 5 -5 5 -3
0 -5 -2 -5 -5z M1100 1135 c0 -3 2 -5 5 -5 3 0 5 2 5 5 0 3 -2 5 -5 5 -3 0 -5
-2 -5 -5z M1210 1120 c0 -7 3 -10 7 -7 3 4 3 10 0 14 -4 3 -7 0 -7 -7z M510
955 c0 -3 2 -5 5 -5 3 0 5 2 5 5 0 3 -2 5 -5 5 -3 0 -5 -2 -5 -5z M876 904
c-8 -22 -4 -25 11 -9 7 8 9 16 4 19 -5 3 -12 -1 -15 -10z M1255 890 c3 -5 8
-10 11 -10 3 0 2 5 -1 10 -3 6 -8 10 -11 10 -3 0 -2 -4 1 -10z M1551 795 c-12
-27 -28 -63 -36 -80 -7 -16 -25 -57 -40 -91 -22 -50 -26 -68 -20 -107 9 -61
21 -60 28 3 3 27 15 66 26 87 53 98 72 153 69 195 l-4 43 -23 -50z M2036 768
c3 -13 15 -40 25 -60 40 -78 70 -218 74 -338 2 -63 1 -99 -3 -80 -7 30 -9 24
-15 -44 -10 -115 -9 -246 3 -246 6 0 10 10 10 23 0 16 3 18 9 8 7 -11 10 -11
15 0 3 8 3 4 0 -8 -4 -19 -1 -23 20 -23 25 0 26 2 21 37 -7 47 -12 135 -14
231 -1 46 -5 71 -11 67 -6 -4 -10 11 -10 38 0 93 -46 270 -96 369 -26 50 -40
64 -28 26z m105 -581 c-10 -9 -11 -8 -5 6 3 10 9 15 12 12 3 -3 0 -11 -7 -18z
m29 -62 c0 -8 -6 -15 -14 -15 -9 0 -12 -7 -9 -20 4 -16 2 -19 -11 -14 -20 8
-20 23 1 46 20 22 33 23 33 3z M1820 739 c0 -5 5 -7 10 -4 6 3 10 8 10 11 0 2
-4 4 -10 4 -5 0 -10 -5 -10 -11z M2010 745 c0 -3 2 -5 5 -5 3 0 5 2 5 5 0 3
-2 5 -5 5 -3 0 -5 -2 -5 -5z M1893 723 c4 -3 10 -3 14 0 3 4 0 7 -7 7 -7 0
-10 -3 -7 -7z M1897 691 c-3 -14 0 -21 9 -21 16 0 18 9 5 28 -6 10 -10 9 -14
-7z M1930 655 c0 -3 2 -5 5 -5 3 0 5 2 5 5 0 3 -2 5 -5 5 -3 0 -5 -2 -5 -5z
M1840 634 c0 -11 9 -47 20 -80 39 -111 91 -339 102 -446 10 -96 14 -108 31
-108 22 0 22 1 -18 185 -14 66 -27 129 -29 140 -6 36 -19 80 -26 90 -4 6 -6
18 -5 27 2 10 -1 20 -6 24 -5 3 -9 18 -9 34 0 16 -5 32 -10 35 -6 4 -10 14 -9
23 2 10 -7 35 -19 57 -16 30 -21 35 -22 19z M1923 633 c4 -3 10 -3 14 0 3 4 0
7 -7 7 -7 0 -10 -3 -7 -7z M810 505 c0 -3 2 -5 5 -5 3 0 5 2 5 5 0 3 -2 5 -5
5 -3 0 -5 -2 -5 -5z M444 298 c-4 -7 -3 -8 4 -4 12 7 16 16 8 16 -3 0 -8 -5
-12 -12z M1960 295 c0 -3 2 -5 5 -5 3 0 5 2 5 5 0 3 -2 5 -5 5 -3 0 -5 -2 -5
-5z M444 258 c7 -25 15 -75 19 -123 1 -16 6 -36 10 -42 5 -8 3 -13 -4 -13 -8
0 -9 -3 0 -14 13 -15 -9 -42 -24 -28 -5 4 -5 1 -1 -5 9 -16 7 -16 -43 1 -30
11 -40 12 -38 3 1 -7 -3 -11 -10 -10 -8 2 -10 -4 -6 -14 6 -14 8 -14 20 3 12
16 13 16 13 1 0 -21 59 -24 79 -5 11 10 14 10 18 1 12 -34 41 -5 33 32 -1 6
-3 28 -5 50 -2 22 -8 41 -14 43 -6 2 -11 18 -11 35 0 18 -7 44 -14 60 -13 24
-13 27 2 27 15 0 15 2 2 10 -24 16 -33 12 -26 -12z m26 -53 c0 -3 -2 -5 -5 -5
-3 0 -5 2 -5 5 0 3 2 5 5 5 3 0 5 -2 5 -5z M2074 268 c-4 -7 -3 -8 4 -4 7 4
12 9 12 12 0 8 -9 4 -16 -8z M2069 248 c-5 -19 -3 -75 3 -72 5 3 6 -15 3 -40
-3 -24 -2 -47 3 -50 4 -2 9 26 10 64 2 40 -2 71 -8 75 -6 3 -8 11 -5 16 4 5 4
9 1 9 -3 0 -6 -1 -7 -2z M990 185 c0 -3 2 -5 5 -5 3 0 5 2 5 5 0 3 -2 5 -5 5
-3 0 -5 -2 -5 -5z M1990 175 c0 -3 2 -5 5 -5 3 0 5 2 5 5 0 3 -2 5 -5 5 -3 0
-5 -2 -5 -5z M2050 155 c0 -3 2 -5 5 -5 3 0 5 2 5 5 0 3 -2 5 -5 5 -3 0 -5 -2
-5 -5z M230 135 c0 -3 2 -5 5 -5 3 0 5 2 5 5 0 3 -2 5 -5 5 -3 0 -5 -2 -5 -5z
M273 113 c4 -3 10 -3 14 0 3 4 0 7 -7 7 -7 0 -10 -3 -7 -7z M650 115 c0 -3 2
-5 5 -5 3 0 5 2 5 5 0 3 -2 5 -5 5 -3 0 -5 -2 -5 -5z M635 70 c-11 -4 -23 -6
-27 -3 -5 2 -8 -1 -8 -7 0 -7 -7 -9 -16 -6 -14 5 -15 4 -5 -8 9 -11 9 -16 0
-22 -8 -4 -9 -3 -5 4 4 7 2 12 -3 12 -13 0 -14 -10 -2 -29 8 -12 12 -12 25 -2
11 9 16 10 16 2 0 -15 50 -14 51 2 1 6 3 22 4 35 3 27 -4 32 -30 22z M320 65
c0 -3 2 -5 5 -5 3 0 5 2 5 5 0 3 -2 5 -5 5 -3 0 -5 -2 -5 -5z M680 59 c0 -5 5
-7 10 -4 6 3 10 8 10 11 0 2 -4 4 -10 4 -5 0 -10 -5 -10 -11z M2081 54 c0 -11
3 -14 6 -6 3 7 2 16 -1 19 -3 4 -6 -2 -5 -13z M330 45 c-7 -9 -11 -17 -9 -20
3 -2 10 5 17 15 14 24 10 26 -8 5z M460 55 c0 -3 2 -5 5 -5 3 0 5 2 5 5 0 3
-2 5 -5 5 -3 0 -5 -2 -5 -5z M2080 10 c0 -7 3 -10 7 -7 3 4 3 10 0 14 -4 3 -7
0 -7 -7z"/>
</g>
</svg>
