<?xml version="1.0" standalone="no"?>
<!DOCTYPE svg PUBLIC "-//W3C//DTD SVG 20010904//EN"
 "http://www.w3.org/TR/2001/REC-SVG-20010904/DTD/svg10.dtd">
<svg version="1.0" xmlns="http://www.w3.org/2000/svg"
 width="250.000000pt" height="250.000000pt" viewBox="0 0 250.000000 250.000000"
 preserveAspectRatio="xMidYMid meet">
<metadata>
Created by potrace 1.16, written by Peter Selinger 2001-2019
</metadata>
<g transform="translate(0.000000,250.000000) scale(0.100000,-0.100000)"
fill="#00FF99" stroke="none">
<path d="M443 2430 c-85 -89 -124 -156 -168 -293 -55 -168 -56 -258 -8 -612
16 -119 42 -195 66 -195 8 0 9 3 1 8 -19 12 -35 50 -24 57 14 9 32 -4 24 -17
-4 -6 -2 -8 4 -4 5 3 12 3 14 -2 1 -4 22 -22 46 -40 23 -19 42 -40 42 -48 0
-8 4 -14 10 -14 5 0 6 8 3 18 -6 15 -5 16 13 2 10 -8 -1 8 -26 36 -25 29 -46
48 -48 43 -12 -30 -70 72 -101 179 -26 87 -24 133 2 51 30 -93 49 -108 30 -24
-8 39 -16 113 -16 165 -2 92 0 99 43 205 51 123 110 208 155 225 16 6 49 29
71 51 45 44 41 43 189 39 11 -1 35 2 53 6 20 4 38 2 47 -6 13 -11 14 -10 9 3
-8 22 -23 24 -144 23 -91 -1 -110 -4 -143 -24 -20 -13 -37 -28 -37 -33 0 -6
-5 -7 -10 -4 -6 4 -9 3 -8 -2 2 -4 -1 -10 -6 -13 -34 -18 -136 -117 -129 -124
4 -3 2 -6 -4 -6 -26 0 -103 -229 -104 -314 l-1 -61 -15 85 c-21 123 -12 222
31 349 20 57 41 110 47 118 6 7 9 13 6 13 -11 0 60 101 104 148 62 66 73 82
60 82 -6 0 -41 -32 -78 -70z m-176 -767 c-4 -3 -7 0 -7 7 0 7 3 10 7 7 3 -4 3
-10 0 -14z M1010 2474 c-12 -30 -13 -65 -2 -79 10 -15 82 -35 123 -35 53 1 11
20 -57 27 l-56 6 5 31 c3 17 8 41 12 54 10 31 -13 29 -25 -4z M1360 2490 c-25
-4 -39 -8 -32 -8 6 -1 12 -6 12 -12 0 -5 -8 -6 -17 -3 -15 6 -16 4 -5 -9 7 -9
29 -19 50 -23 20 -3 48 -9 62 -12 24 -5 24 -4 -5 16 -16 11 -24 21 -16 21 11
0 11 3 1 15 -19 23 5 20 46 -6 19 -11 34 -17 34 -12 0 12 -55 43 -72 41 -7 0
-33 -4 -58 -8z M1486 2484 c12 -8 54 -46 95 -84 40 -38 77 -66 83 -63 6 3 8 3
4 -2 -4 -4 2 -19 12 -33 38 -48 20 -40 -41 17 -57 54 -62 57 -102 53 -98 -9
-280 0 -295 14 -8 9 -21 13 -29 10 -8 -3 -21 -6 -29 -6 -8 0 -14 -5 -14 -11 0
-6 12 -9 28 -8 15 2 27 -1 27 -6 0 -6 -4 -10 -10 -11 -71 -5 -183 -42 -255
-84 -25 -15 -51 -25 -59 -22 -8 3 -11 0 -8 -5 4 -6 -25 -39 -65 -74 -76 -67
-164 -179 -203 -258 -59 -116 -84 -393 -54 -587 14 -91 9 -108 -19 -62 -25 40
-28 52 -10 43 7 -4 6 -1 -2 7 -9 7 -14 21 -12 31 2 10 -3 17 -11 17 -8 0 -20
14 -27 30 -13 31 -35 43 -23 13 4 -11 3 -14 -5 -9 -7 4 -12 1 -12 -8 0 -8 5
-18 11 -21 6 -4 8 -14 4 -22 -4 -13 -3 -14 10 -3 17 14 21 0 4 -17 -8 -8 -7
-13 2 -18 8 -6 10 -4 4 5 -5 9 -4 11 3 6 8 -5 8 -15 2 -32 -7 -16 -7 -23 0
-19 5 3 18 1 27 -4 17 -10 16 -10 -2 -12 -79 -5 -156 23 -198 72 -38 44 -42
46 -51 22 -4 -10 -4 -14 1 -10 12 13 40 -52 35 -84 -2 -16 -8 -29 -13 -29 -6
0 -5 -10 2 -21 10 -20 7 -139 -7 -194 -2 -11 -8 -56 -12 -101 -7 -74 -6 -81 9
-77 14 4 16 0 12 -16 -3 -12 -1 -21 6 -21 7 0 10 29 9 88 -1 48 1 121 6 162 4
41 8 104 9 140 2 70 21 102 42 73 6 -8 19 -15 30 -17 11 -2 23 -14 26 -27 6
-21 7 -21 9 -4 1 11 2 24 1 28 -1 5 3 6 8 3 5 -3 16 -40 26 -81 17 -76 32
-104 22 -40 -5 31 4 48 16 28 2 -5 2 -3 1 4 -2 7 6 15 17 18 10 4 19 11 19 16
0 13 -7 11 -34 -6 -22 -15 -23 -14 -33 20 -6 19 -8 35 -3 35 4 0 10 -9 13 -20
3 -11 11 -20 19 -20 10 0 9 3 -2 10 -21 14 3 13 34 -1 14 -7 27 -18 30 -26 3
-8 2 -12 -2 -9 -4 2 -14 0 -22 -5 -12 -7 -11 -8 5 -6 11 1 26 6 33 11 7 4 12
4 11 -1 -3 -20 3 -34 26 -59 l25 -27 0 24 c0 18 2 21 9 10 6 -9 5 -23 -1 -35
-10 -19 -9 -19 5 -8 14 12 15 9 13 -29 l-3 -43 14 28 c8 16 13 37 10 47 -3 10
-2 18 2 17 26 -3 41 6 50 30 10 26 11 26 8 -10 -2 -21 1 -38 5 -38 4 0 8 6 9
13 0 6 4 3 9 -8 12 -28 12 -2 0 29 -6 17 -6 26 0 26 6 0 10 -5 10 -11 0 -5 4
-8 9 -5 12 8 4 65 -11 84 -11 12 -10 16 0 20 9 3 10 8 2 17 -8 9 -7 14 2 18 9
3 13 -8 14 -39 0 -26 8 -51 17 -62 10 -10 17 -34 16 -53 -1 -30 -2 -31 -8 -9
-5 17 -9 21 -15 12 -4 -7 -5 -20 -2 -30 3 -9 6 -53 7 -97 1 -44 6 -85 11 -92
5 -6 10 -33 12 -60 2 -26 5 -50 6 -53 5 -10 7 -26 10 -70 2 -41 3 -42 9 -15
l7 30 7 -37 c5 -21 13 -38 20 -38 10 0 12 47 10 203 -4 238 -14 343 -48 492
-14 61 -28 147 -31 192 l-7 81 29 15 c73 36 208 45 333 21 29 -6 33 -4 28 9
-3 9 -1 18 6 20 26 10 -49 27 -141 33 -94 6 -99 5 -159 -24 -34 -16 -70 -38
-80 -48 -17 -17 -18 -15 -21 43 -11 217 150 454 359 529 27 10 49 24 49 32 0
9 -6 12 -15 8 -8 -3 -22 -9 -32 -13 -11 -4 -14 -3 -9 5 4 7 13 12 20 12 18 0
49 37 42 48 -7 11 -24 11 -44 -2 -7 -4 -25 -5 -40 -2 -26 5 -26 5 3 -9 21 -10
25 -14 11 -15 -12 0 -16 -5 -12 -16 4 -11 -1 -18 -14 -21 -11 -3 -20 -9 -20
-14 0 -5 -6 -9 -13 -9 -8 0 -40 -20 -72 -45 -159 -124 -218 -252 -239 -520 -1
-22 -3 -7 -4 33 -2 74 -22 97 -22 25 0 -20 -3 -33 -7 -30 -3 4 -6 22 -5 42 1
27 -2 33 -14 28 -14 -5 -15 -35 -11 -242 2 -130 2 -269 0 -309 -5 -71 -5 -72
-32 -72 -20 0 -37 12 -64 45 -33 39 -37 49 -31 80 3 19 10 35 15 35 5 0 9 10
9 23 l0 22 20 -25 c24 -30 25 -25 5 29 -33 95 -23 306 20 387 8 16 15 35 15
42 0 8 6 28 14 45 13 30 46 145 46 160 0 4 -5 7 -11 7 -6 0 -9 -7 -5 -15 3 -8
1 -15 -5 -15 -6 0 -7 -4 -4 -10 3 -5 1 -10 -5 -10 -35 0 54 143 147 235 98 96
185 142 311 162 147 24 183 26 224 12 33 -11 41 -11 50 2 8 11 9 11 4 -3 -3
-10 -1 -18 5 -18 5 0 4 -6 -3 -14 -10 -10 -18 -11 -36 -3 -16 7 -37 7 -73 -1
-28 -7 -54 -10 -58 -7 -4 2 -8 -2 -8 -10 0 -12 17 -15 77 -15 130 0 198 -36
269 -142 56 -84 87 -151 104 -225 15 -68 14 -73 -11 -44 -17 19 -19 18 -101
-37 -79 -54 -124 -103 -108 -118 3 -4 32 12 62 35 70 53 150 95 164 86 6 -3
11 -20 11 -37 0 -34 20 -108 29 -108 3 0 7 -24 9 -53 1 -28 10 -90 19 -137 21
-116 12 -231 -32 -398 -19 -73 -41 -145 -49 -160 -8 -15 -28 -67 -45 -117 -45
-126 -75 -161 -165 -189 -17 -6 -18 -8 -2 -24 9 -11 16 -36 16 -60 0 -22 5
-44 10 -47 10 -6 14 20 11 58 -3 20 15 23 23 5 3 -7 4 4 2 24 -3 25 1 38 11
42 8 4 11 1 7 -5 -4 -8 -1 -8 14 0 11 6 24 20 27 31 3 11 11 20 16 20 6 0 7 5
4 10 -3 6 -2 10 3 10 9 0 62 119 62 140 0 6 7 18 15 28 46 52 65 83 65 105 0
14 5 29 10 32 5 3 10 18 10 33 0 21 2 24 10 12 13 -21 13 -3 -1 22 -8 15 -8
19 0 14 6 -4 12 0 12 11 2 24 2 25 -6 46 -6 13 -3 16 9 11 9 -3 16 -1 16 5 0
6 -4 11 -10 11 -6 0 -6 9 0 25 5 13 10 44 12 70 4 62 14 57 23 -12 3 -32 15
-75 26 -96 10 -20 18 -41 18 -45 -1 -4 -1 -14 0 -22 1 -13 3 -13 12 0 9 12 9
11 3 -5 -4 -11 -7 -30 -7 -42 1 -13 -3 -21 -7 -18 -16 10 -17 -20 -1 -33 9 -8
11 -11 4 -8 -6 4 -14 -3 -18 -14 -3 -11 -11 -20 -16 -20 -5 0 -9 -7 -9 -15 0
-8 5 -15 11 -15 5 0 7 5 4 10 -3 6 -2 10 4 10 21 0 62 68 66 110 4 44 -19 120
-37 120 -6 0 -8 13 -4 33 3 17 1 39 -4 47 -8 11 -9 7 -4 -15 4 -23 3 -27 -5
-15 -6 8 -11 33 -10 55 2 65 -3 112 -8 90 -9 -33 -60 123 -56 170 1 22 0 34
-3 28 -11 -24 -24 -13 -23 20 0 26 2 28 8 12 5 -12 7 6 6 45 -3 69 -17 88 -22
30 -5 -46 -16 -55 -12 -10 2 19 -1 42 -5 49 -6 9 -5 12 1 8 6 -4 14 0 17 9 3
8 2 13 -3 10 -11 -7 -32 49 -23 59 4 3 0 10 -8 16 -13 8 -13 10 -1 18 13 8 13
12 1 26 -10 12 -10 19 -3 23 8 5 7 19 -3 47 -7 22 -14 49 -14 60 0 11 -9 31
-20 45 -11 14 -20 31 -20 38 0 6 -5 12 -11 12 -6 0 -8 9 -4 21 5 14 3 19 -4
15 -6 -4 -17 8 -25 29 -9 20 -20 34 -25 31 -5 -3 -8 2 -7 11 0 10 -6 18 -14
18 -8 1 -14 6 -13 13 4 16 -26 45 -67 66 -38 19 -43 20 -35 6 3 -6 -1 -7 -10
-3 -13 5 -14 7 -3 14 7 5 8 9 2 9 -6 0 -16 11 -22 25 -14 30 1 34 36 9 22 -15
32 -41 10 -28 -7 4 -8 3 -4 -5 6 -8 12 -9 20 -2 7 6 17 7 22 3 5 -4 -2 5 -15
21 l-25 28 49 -18 c47 -17 173 -122 130 -108 -16 5 -18 4 -7 -6 6 -7 12 -24
12 -37 0 -13 4 -20 10 -17 6 3 7 -1 4 -9 -3 -9 -11 -13 -17 -9 -6 3 -7 1 -3
-6 4 -6 11 -9 15 -7 11 7 52 -69 43 -79 -4 -5 -1 -4 7 0 11 6 13 4 8 -8 -4
-10 -2 -16 4 -14 15 3 39 -76 44 -148 3 -33 7 -73 11 -90 5 -28 4 -29 -10 -11
-8 10 -17 24 -19 30 -2 6 -8 7 -13 3 -5 -4 -4 -11 2 -15 6 -4 14 -20 18 -35 4
-15 11 -25 16 -22 10 6 25 -38 22 -70 -1 -18 18 -65 68 -165 10 -19 17 -49 16
-67 -1 -23 2 -29 11 -22 8 7 15 -6 24 -48 7 -32 15 -60 18 -63 3 -3 6 -21 7
-40 2 -62 15 -205 21 -220 2 -8 7 -35 10 -60 3 -25 9 -53 14 -62 6 -12 6 -18
-1 -18 -6 0 -9 -23 -8 -57 l2 -58 3 53 c5 60 13 65 36 20 l18 -33 -6 58 c-3
31 -12 76 -21 100 -17 44 -19 57 -29 147 -3 30 -7 67 -9 83 -2 15 -1 25 4 22
5 -3 10 0 12 7 8 22 66 -167 60 -194 -1 -4 2 -18 8 -32 6 -18 5 -28 -6 -36
-20 -18 -17 -32 5 -25 11 3 22 2 25 -3 3 -6 -2 -9 -10 -8 -9 0 -18 -7 -20 -17
-2 -13 2 -17 12 -13 10 4 14 -3 14 -27 0 -18 9 -46 19 -63 l19 -32 -21 5 c-20
4 -20 3 -4 -7 10 -6 24 -9 32 -6 9 3 12 0 8 -10 -6 -17 -4 -17 -53 2 -28 11
-47 28 -61 53 -17 32 -19 33 -18 11 1 -14 0 -43 -1 -65 -2 -36 -3 -37 -10 -15
-7 18 -8 11 -4 -25 3 -32 1 -43 -4 -30 -8 17 -9 16 -16 -10 -4 -17 -9 -38 -12
-47 -4 -13 -1 -16 10 -12 23 9 20 -3 -8 -33 -25 -27 -26 -43 -1 -43 13 0 25
-21 25 -43 0 -7 -7 -4 -14 6 -11 14 -15 15 -19 5 -4 -8 -6 -7 -6 5 -1 9 -5 17
-10 17 -20 0 -29 -280 -10 -339 32 -99 38 -106 59 -73 9 14 11 14 7 1 -3 -9 0
-22 6 -28 8 -8 8 -11 0 -11 -6 0 -14 6 -16 13 -3 6 -6 1 -6 -12 -1 -24 -1 -24
-17 -5 -14 18 -15 18 -4 -3 6 -13 16 -22 22 -20 6 1 13 -4 16 -12 3 -10 0 -11
-9 -5 -12 7 -12 5 0 -9 18 -23 32 -12 21 18 -6 15 -6 27 1 30 5 4 6 12 2 18
-4 7 -8 19 -8 27 0 8 -5 14 -12 13 -7 -2 -17 6 -23 17 -6 11 -8 20 -4 20 3 0
1 7 -6 15 -7 8 -9 15 -5 15 4 0 0 12 -10 26 -9 15 -12 24 -7 20 11 -6 8 96 -2
113 -6 10 14 93 26 106 6 6 7 -1 2 -19 -5 -21 -4 -27 5 -22 6 4 11 2 11 -4 0
-6 -7 -13 -15 -16 -20 -8 -19 -23 2 -46 15 -17 15 -18 0 -18 -23 0 -21 -16 3
-33 11 -8 17 -17 14 -20 -4 -4 1 -18 11 -33 15 -24 16 -26 1 -21 -10 4 -16 1
-16 -9 0 -9 5 -12 11 -8 8 4 9 -1 5 -17 -3 -13 -3 -18 0 -11 5 10 9 10 20 1
21 -17 18 9 -7 55 -14 27 -17 42 -10 49 14 14 14 30 1 22 -5 -3 -10 -1 -10 5
0 6 -6 8 -12 4 -10 -6 -10 -4 0 7 17 19 16 50 -3 43 -8 -4 -15 -1 -15 5 0 6 7
11 15 11 10 0 15 11 16 33 0 26 2 28 8 12 5 -11 7 -39 6 -63 -3 -48 1 -49 14
-5 6 19 4 40 -4 60 -18 43 -23 165 -7 170 8 3 12 -9 12 -43 0 -26 3 -44 7 -40
4 4 14 -14 23 -39 15 -47 31 -63 36 -35 1 8 6 30 9 48 9 37 -1 43 -15 9 -8
-21 -9 -21 -9 7 -1 21 -5 27 -16 22 -21 -8 -31 20 -15 39 9 11 9 19 2 28 -6 6
-10 17 -9 22 1 6 -10 11 -24 13 l-26 3 18 36 c10 20 24 40 31 45 10 6 10 8 1
8 -7 0 -13 4 -13 10 0 5 8 7 18 4 14 -5 14 -3 -2 10 -25 20 -22 20 44 -3 36
-13 57 -16 61 -9 4 7 13 6 27 -1 28 -15 89 -71 77 -71 -5 0 0 -7 11 -16 18
-14 18 -15 -4 -4 -12 6 -20 15 -17 21 6 8 -16 14 -38 10 -5 -1 -6 2 -3 7 9 15
-131 34 -154 22 -25 -13 -27 -43 -2 -38 9 2 16 12 16 21 -1 10 2 17 8 15 5 -2
8 -6 6 -10 -2 -3 10 -18 27 -33 17 -16 31 -23 33 -16 3 8 9 8 24 0 11 -6 22
-9 24 -6 6 6 -36 33 -61 40 -11 3 -6 5 13 4 17 -1 32 -5 32 -9 0 -4 5 -8 11
-8 10 0 92 -34 119 -49 8 -5 14 -14 12 -21 -1 -6 3 -8 9 -5 15 10 119 -105
119 -131 0 -11 7 -29 15 -40 13 -17 14 -16 9 21 -15 115 -27 172 -45 206 -26
52 -32 49 -9 -4 11 -24 22 -63 26 -87 l6 -45 -53 60 c-88 97 -96 105 -103 105
-4 0 -4 -5 0 -12 4 -7 3 -8 -5 -4 -6 4 -9 11 -6 16 3 5 -16 26 -42 47 -27 21
-48 40 -48 43 0 3 -5 23 -12 45 -6 22 -24 90 -39 150 -29 118 -113 349 -187
510 -57 125 -85 231 -96 365 -10 117 -29 177 -90 280 -23 38 -41 72 -41 76 0
10 -77 159 -102 198 -17 26 -18 24 -5 -14 1 -3 -2 -5 -8 -5 -5 0 -9 4 -7 8 1
5 -3 5 -9 1 -8 -4 -9 3 -4 24 7 36 -17 82 -44 82 -24 0 -33 -11 -20 -26 8 -9
5 -11 -10 -7 -11 3 -19 10 -18 15 1 6 -9 12 -23 14 -25 3 -25 3 -4 -12z m24 1
c0 -3 -2 -5 -5 -5 -3 0 -5 2 -5 5 0 3 2 5 5 5 3 0 5 -2 5 -5z m50 0 c0 -3 -2
-5 -5 -5 -3 0 -5 2 -5 5 0 3 2 5 5 5 3 0 5 -2 5 -5z m10 -20 c0 -3 -2 -5 -5
-5 -3 0 -5 2 -5 5 0 3 2 5 5 5 3 0 5 -2 5 -5z m10 -20 c0 -3 -2 -5 -5 -5 -3 0
-5 2 -5 5 0 3 2 5 5 5 3 0 5 -2 5 -5z m-15 -87 c39 -17 31 -37 -9 -22 -9 3
-13 10 -10 15 3 6 -5 7 -22 3 -19 -5 -25 -4 -20 5 9 14 28 14 61 -1z m92 -5
c-4 -3 -10 -3 -14 0 -3 4 0 7 7 7 7 0 10 -3 7 -7z m-230 -20 c-4 -3 -10 -3
-14 0 -3 4 0 7 7 7 7 0 10 -3 7 -7z m183 -8 c0 -3 -2 -5 -5 -5 -3 0 -5 2 -5 5
0 3 2 5 5 5 3 0 5 -2 5 -5z m-790 -200 c0 -3 -2 -5 -5 -5 -3 0 -5 2 -5 5 0 3
2 5 5 5 3 0 5 -2 5 -5z m960 -50 c0 -3 -2 -5 -5 -5 -3 0 -5 2 -5 5 0 3 2 5 5
5 3 0 5 -2 5 -5z m-1040 -30 c0 -3 -2 -5 -5 -5 -3 0 -5 2 -5 5 0 3 2 5 5 5 3
0 5 -2 5 -5z m-10 -20 c0 -3 -2 -5 -5 -5 -3 0 -5 2 -5 5 0 3 2 5 5 5 3 0 5 -2
5 -5z m-19 -38 c-20 -25 -43 -117 -36 -148 4 -15 3 -34 -1 -41 -5 -7 -9 -20
-9 -28 -1 -8 -2 -26 -3 -40 -2 -18 -5 -21 -11 -11 -13 20 -22 0 -43 -94 l-18
-80 6 65 c5 63 11 105 14 105 1 0 3 11 5 25 2 14 13 61 25 105 13 44 23 84 25
90 5 25 29 64 36 59 5 -3 9 0 9 7 0 7 3 9 6 6 4 -4 2 -13 -5 -20z m1029 -22
c0 -3 -2 -5 -5 -5 -3 0 -5 2 -5 5 0 3 2 5 5 5 3 0 5 -2 5 -5z m-1050 -92 c-11
-17 -11 -17 -6 0 3 10 6 24 7 30 0 9 2 9 5 0 3 -7 0 -20 -6 -30z m1067 20 c-4
-3 -7 0 -7 7 0 7 3 10 7 7 3 -4 3 -10 0 -14z m63 -208 c0 -3 -2 -5 -5 -5 -3 0
-5 2 -5 5 0 3 2 5 5 5 3 0 5 -2 5 -5z m47 -32 c-4 -3 -7 0 -7 7 0 7 3 10 7 7
3 -4 3 -10 0 -14z m-1097 -68 c0 -3 -2 -5 -5 -5 -3 0 -5 2 -5 5 0 3 2 5 5 5 3
0 5 -2 5 -5z m-173 -72 c-4 -3 -7 0 -7 7 0 7 3 10 7 7 3 -4 3 -10 0 -14z
m1233 -8 c0 -3 -2 -5 -5 -5 -3 0 -5 2 -5 5 0 3 2 5 5 5 3 0 5 -2 5 -5z m-1220
-9 c0 -3 -5 -8 -12 -12 -7 -4 -8 -3 -4 4 7 12 16 16 16 8z m170 -31 c0 -3 -2
-5 -5 -5 -3 0 -5 2 -5 5 0 3 2 5 5 5 3 0 5 -2 5 -5z m3 -75 c3 -11 1 -18 -4
-14 -5 3 -9 12 -9 20 0 20 7 17 13 -6z m-263 -45 c0 -3 -2 -5 -5 -5 -3 0 -5 2
-5 5 0 3 2 5 5 5 3 0 5 -2 5 -5z m260 0 c0 -3 -2 -5 -5 -5 -3 0 -5 2 -5 5 0 3
2 5 5 5 3 0 5 -2 5 -5z m20 0 c0 -3 -2 -5 -5 -5 -3 0 -5 2 -5 5 0 3 2 5 5 5 3
0 5 -2 5 -5z m47 -42 c-4 -3 -7 0 -7 7 0 7 3 10 7 7 3 -4 3 -10 0 -14z m-61
-2 c-4 -5 -1 -11 5 -13 7 -2 5 -9 -5 -17 -14 -12 -16 -12 -10 3 4 10 1 16 -7
16 -11 0 -11 3 1 10 19 12 23 12 16 1z m1101 -38 c-3 -10 -5 -2 -5 17 0 19 2
27 5 18 2 -10 2 -26 0 -35z m-1377 22 c0 -3 -2 -5 -5 -5 -3 0 -5 2 -5 5 0 3 2
5 5 5 3 0 5 -2 5 -5z m1530 -10 c0 -3 -2 -5 -5 -5 -3 0 -5 2 -5 5 0 3 2 5 5 5
3 0 5 -2 5 -5z m-1703 -12 c-4 -3 -10 -3 -14 0 -3 4 0 7 7 7 7 0 10 -3 7 -7z
m520 -15 c-3 -8 -6 -5 -6 6 -1 11 2 17 5 13 3 -3 4 -12 1 -19z m-477 7 c0 -3
-2 -5 -5 -5 -3 0 -5 2 -5 5 0 3 2 5 5 5 3 0 5 -2 5 -5z m130 -30 c0 -3 -2 -5
-5 -5 -3 0 -5 2 -5 5 0 3 2 5 5 5 3 0 5 -2 5 -5z m357 -47 c-3 -7 -5 -2 -5 12
0 14 2 19 5 13 2 -7 2 -19 0 -25z m-120 -20 c-3 -8 -6 -5 -6 6 -1 11 2 17 5
13 3 -3 4 -12 1 -19z m30 0 c-3 -8 -6 -5 -6 6 -1 11 2 17 5 13 3 -3 4 -12 1
-19z m100 -60 c-3 -7 -5 -2 -5 12 0 14 2 19 5 13 2 -7 2 -19 0 -25z m-167 7
c0 -3 -2 -5 -5 -5 -3 0 -5 2 -5 5 0 3 2 5 5 5 3 0 5 -2 5 -5z m1115 -5 c3 -5
1 -10 -4 -10 -6 0 -11 5 -11 10 0 6 2 10 4 10 3 0 8 -4 11 -10z m-960 -189 c3
-63 9 -120 12 -125 4 -7 1 -6 -6 0 -19 17 -38 203 -31 294 4 47 18 -50 25
-169z m22 -54 c-2 -23 -3 -1 -3 48 0 50 1 68 3 42 2 -26 2 -67 0 -90z m1153
128 c0 -3 -2 -5 -5 -5 -3 0 -5 2 -5 5 0 3 2 5 5 5 3 0 5 -2 5 -5z m80 -10 c0
-3 -2 -5 -5 -5 -3 0 -5 2 -5 5 0 3 2 5 5 5 3 0 5 -2 5 -5z m-353 -32 c-4 -3
-7 0 -7 7 0 7 3 10 7 7 3 -4 3 -10 0 -14z m270 0 c-4 -3 -7 0 -7 7 0 7 3 10 7
7 3 -4 3 -10 0 -14z m-1750 -40 c-4 -3 -7 0 -7 7 0 7 3 10 7 7 3 -4 3 -10 0
-14z m1443 -8 c0 -3 -2 -5 -5 -5 -3 0 -5 2 -5 5 0 3 2 5 5 5 3 0 5 -2 5 -5z
m-1440 -10 c0 -3 -2 -5 -5 -5 -3 0 -5 2 -5 5 0 3 2 5 5 5 3 0 5 -2 5 -5z m10
-25 c0 -5 -5 -10 -11 -10 -5 0 -7 5 -4 10 3 6 8 10 11 10 2 0 4 -4 4 -10z
m1427 -7 c-4 -3 -7 0 -7 7 0 7 3 10 7 7 3 -4 3 -10 0 -14z m-847 -88 c0 -3 -2
-5 -5 -5 -3 0 -5 2 -5 5 0 3 2 5 5 5 3 0 5 -2 5 -5z m1120 -190 c0 -3 -2 -5
-5 -5 -3 0 -5 2 -5 5 0 3 2 5 5 5 3 0 5 -2 5 -5z m87 -62 c-4 -3 -7 0 -7 7 0
7 3 10 7 7 3 -4 3 -10 0 -14z m-70 -30 c-4 -3 -7 0 -7 7 0 7 3 10 7 7 3 -4 3
-10 0 -14z m33 -68 c0 -3 -2 -5 -5 -5 -3 0 -5 2 -5 5 0 3 2 5 5 5 3 0 5 -2 5
-5z m-10 -370 c0 -3 -2 -5 -5 -5 -3 0 -5 2 -5 5 0 3 2 5 5 5 3 0 5 -2 5 -5z
M640 1785 c0 -3 2 -5 5 -5 3 0 5 2 5 5 0 3 -2 5 -5 5 -3 0 -5 -2 -5 -5z M631
1754 c0 -11 3 -14 6 -6 3 7 2 16 -1 19 -3 4 -6 -2 -5 -13z M650 1760 c0 -7 3
-10 7 -7 3 4 3 10 0 14 -4 3 -7 0 -7 -7z M1168 2463 c12 -2 30 -2 40 0 9 3 -1
5 -23 4 -22 0 -30 -2 -17 -4z M1500 2446 c0 -2 7 -7 16 -10 8 -3 12 -2 9 4 -6
10 -25 14 -25 6z M1470 2430 c0 -6 8 -13 18 -16 9 -3 32 -12 50 -20 45 -19 30
1 -18 26 -45 23 -50 24 -50 10z M1285 2406 c72 -24 107 -20 69 9 -12 9 -41 14
-79 14 l-60 0 70 -23z M1260 2315 c0 -3 2 -5 5 -5 3 0 5 2 5 5 0 3 -2 5 -5 5
-3 0 -5 -2 -5 -5z M1423 2303 c4 -3 10 -3 14 0 3 4 0 7 -7 7 -7 0 -10 -3 -7
-7z M1490 2305 c0 -3 2 -5 5 -5 3 0 5 2 5 5 0 3 -2 5 -5 5 -3 0 -5 -2 -5 -5z
M1558 2269 c20 -6 32 -16 32 -27 0 -14 2 -15 10 -2 13 21 -7 40 -44 39 l-31
-1 33 -9z M1619 2243 c0 -4 -2 -17 -3 -28 -2 -14 3 -21 15 -21 16 0 17 2 3 17
-12 13 -12 18 -3 21 10 3 10 6 1 12 -7 4 -12 4 -13 -1z M1654 2218 c-4 -7 -3
-8 4 -4 12 7 16 16 8 16 -3 0 -8 -5 -12 -12z M1670 2193 c0 -5 5 -15 10 -23 8
-12 10 -11 10 8 0 12 -4 22 -10 22 -5 0 -10 -3 -10 -7z M499 2142 c-13 -9 -18
-20 -14 -32 3 -10 2 -21 -3 -24 -13 -7 -21 -72 -23 -169 -1 -43 -6 -80 -12
-84 -6 -4 -7 -1 -2 8 4 8 -1 6 -11 -4 -29 -27 -32 -148 -4 -209 19 -44 48 -80
33 -42 -5 13 -3 15 8 9 12 -7 12 -6 1 7 -12 14 -33 210 -22 203 3 -1 11 3 18
11 7 8 10 14 8 14 -3 0 -1 11 4 24 5 14 10 60 11 103 1 43 6 84 11 90 6 7 8
20 4 28 -3 8 -1 15 5 15 6 0 9 7 6 14 -4 11 -1 13 10 9 12 -5 14 -2 9 8 -4 8
4 1 18 -14 l26 -28 0 28 c0 52 -35 67 -81 35z m1 -77 c0 -3 -2 -5 -5 -5 -3 0
-5 2 -5 5 0 3 2 5 5 5 3 0 5 -2 5 -5z m-63 -337 c-3 -7 -5 -2 -5 12 0 14 2 19
5 13 2 -7 2 -19 0 -25z m3 -33 c0 -3 -2 -5 -5 -5 -3 0 -5 2 -5 5 0 3 2 5 5 5
3 0 5 -2 5 -5z M652 2143 c-11 -10 -24 -29 -28 -43 -6 -22 -5 -23 10 -11 14
12 16 12 10 -4 -5 -12 -4 -16 3 -12 7 5 8 -4 3 -27 -4 -19 -4 -40 1 -47 7 -11
9 -9 9 7 0 11 4 24 9 30 11 12 22 124 11 124 -4 0 -17 -8 -28 -17z m-2 -18 c0
-3 -2 -5 -5 -5 -3 0 -5 2 -5 5 0 3 2 5 5 5 3 0 5 -2 5 -5z M610 2115 c0 -3 2
-5 5 -5 3 0 5 2 5 5 0 3 -2 5 -5 5 -3 0 -5 -2 -5 -5z M1715 2100 c3 -5 8 -10
11 -10 3 0 2 5 -1 10 -3 6 -8 10 -11 10 -3 0 -2 -4 1 -10z M1740 2025 c0 -3 2
-5 5 -5 3 0 5 2 5 5 0 3 -2 5 -5 5 -3 0 -5 -2 -5 -5z M0 1875 c0 -16 23 -82
51 -145 27 -63 80 -187 116 -275 37 -88 75 -168 85 -179 11 -10 16 -21 13 -24
-4 -4 -15 4 -25 18 -13 18 -22 22 -30 14 -7 -7 -1 -17 21 -33 25 -18 29 -28
24 -48 -5 -20 -3 -22 8 -12 31 29 12 86 -159 486 -41 97 -82 189 -89 203 l-14
25 -1 -30z M1790 1845 c0 -3 2 -5 5 -5 3 0 5 2 5 5 0 3 -2 5 -5 5 -3 0 -5 -2
-5 -5z M1820 1715 c0 -3 2 -5 5 -5 3 0 5 2 5 5 0 3 -2 5 -5 5 -3 0 -5 -2 -5
-5z M1716 1673 c-6 -14 -9 -15 -15 -4 -7 11 -9 11 -14 0 -5 -12 -6 -12 -6 0
-1 11 -4 11 -16 1 -8 -6 -22 -10 -32 -8 -10 2 -26 -5 -36 -15 -12 -12 -26 -16
-40 -12 -17 5 -18 4 -7 -4 12 -8 10 -14 -13 -35 -28 -26 -38 -48 -12 -26 12
10 18 10 29 1 12 -10 13 -9 9 8 -4 15 4 24 36 40 53 27 71 26 98 -6 17 -20 23
-22 23 -10 0 10 8 17 20 17 13 0 20 7 20 19 0 14 -5 18 -19 14 -16 -4 -19 -1
-14 16 6 25 -2 28 -11 4z m34 -38 c0 -3 -2 -5 -5 -5 -3 0 -5 2 -5 5 0 3 2 5 5
5 3 0 5 -2 5 -5z M656 1665 c-3 -9 -5 -53 -4 -98 l2 -82 5 95 c7 103 7 109 -3
85z M1637 1611 c3 -13 -1 -29 -13 -42 -16 -18 -16 -19 -1 -13 21 8 33 52 19
66 -8 8 -9 5 -5 -11z M1598 1603 c-21 -5 -24 -23 -4 -23 8 0 16 7 20 15 3 8 4
14 3 14 -1 -1 -10 -3 -19 -6z M350 1595 c0 -3 2 -5 5 -5 3 0 5 2 5 5 0 3 -2 5
-5 5 -3 0 -5 -2 -5 -5z M420 1585 c0 -3 2 -5 5 -5 3 0 5 2 5 5 0 3 -2 5 -5 5
-3 0 -5 -2 -5 -5z M537 1567 c-3 -8 -1 -20 4 -28 6 -10 9 -7 9 14 0 29 -5 35
-13 14z M1850 1575 c0 -3 2 -5 5 -5 3 0 5 2 5 5 0 3 -2 5 -5 5 -3 0 -5 -2 -5
-5z M355 1550 c-4 -12 -2 -27 4 -34 9 -10 7 -15 -10 -19 -11 -3 -19 -9 -16
-14 2 -4 14 -29 26 -55 21 -47 38 -66 27 -30 -8 25 30 48 42 25 8 -14 12 -12
24 13 12 25 12 35 0 74 -18 56 -15 52 -56 56 -28 4 -36 0 -41 -16z m38 -13 c3
-8 -1 -14 -8 -14 -7 0 -11 6 -8 14 3 7 6 13 8 13 2 0 5 -6 8 -13z m27 -12 c0
-3 -2 -5 -5 -5 -3 0 -5 2 -5 5 0 3 2 5 5 5 3 0 5 -2 5 -5z m-20 -20 c0 -3 -2
-5 -5 -5 -3 0 -5 2 -5 5 0 3 2 5 5 5 3 0 5 -2 5 -5z m30 0 c0 -3 -2 -5 -5 -5
-3 0 -5 2 -5 5 0 3 2 5 5 5 3 0 5 -2 5 -5z m-30 -25 c0 -5 -7 -10 -16 -10 -8
0 -13 -4 -9 -10 3 -5 13 -6 23 -3 15 6 14 3 -2 -16 l-20 -22 -13 23 c-19 35
-16 48 12 48 14 0 25 -4 25 -10z m17 -7 c-4 -3 -7 0 -7 7 0 7 3 10 7 7 3 -4 3
-10 0 -14z M1126 1555 c6 -14 -18 -20 -73 -18 -7 1 -13 -4 -13 -9 0 -6 -7 -7
-16 -4 -8 3 -12 2 -9 -4 8 -14 -8 -13 -22 1 -8 8 -11 6 -10 -7 1 -12 -4 -19
-15 -18 -10 1 -15 -2 -12 -7 3 -5 -5 -9 -18 -9 -19 0 -20 -2 -8 -11 12 -9 11
-10 -7 -6 -12 3 -24 -1 -26 -7 -9 -23 59 -18 89 7 55 44 146 66 178 42 11 -8
23 -15 26 -15 12 0 3 44 -10 48 -7 3 -10 0 -6 -7 4 -6 1 -11 -8 -11 -9 0 -18
11 -22 25 -3 14 -10 25 -15 25 -5 0 -6 -7 -3 -15z M480 1555 c0 -3 2 -5 5 -5
3 0 5 2 5 5 0 3 -2 5 -5 5 -3 0 -5 -2 -5 -5z M497 1533 c-4 -3 0 -15 10 -25 9
-10 14 -21 11 -24 -3 -3 -15 4 -26 16 l-20 22 5 -38 c3 -21 10 -50 16 -64 10
-24 11 -24 14 -3 3 12 -1 31 -7 42 -9 18 -8 21 7 18 10 -1 25 -7 33 -12 13 -7
13 -6 2 7 -7 8 -11 22 -9 29 2 8 2 10 -1 6 -2 -4 -10 -3 -18 4 -8 6 -11 15 -8
20 6 11 0 12 -9 2z M520 1535 c0 -3 2 -5 5 -5 3 0 5 2 5 5 0 3 -2 5 -5 5 -3 0
-5 -2 -5 -5z M1122 1490 c0 -14 2 -19 5 -12 2 6 2 18 0 25 -3 6 -5 1 -5 -13z
M1074 1485 c-17 -13 -17 -14 -2 -15 9 0 20 5 23 11 11 17 0 20 -21 4z M0 1471
c0 -22 16 -25 75 -12 36 8 25 16 -32 26 -39 6 -43 5 -43 -14z M1033 1465 c3
-30 53 -44 75 -21 16 18 16 18 -5 7 -25 -13 -56 -2 -67 21 -3 7 -5 4 -3 -7z
M1860 1435 c0 -3 2 -5 5 -5 3 0 5 2 5 5 0 3 -2 5 -5 5 -3 0 -5 -2 -5 -5z M11
1409 c7 -14 14 -19 16 -12 8 22 53 -16 53 -43 0 -14 6 -27 13 -30 8 -3 14 -10
15 -17 0 -7 4 -23 8 -37 7 -22 6 -24 -9 -12 -9 8 -21 11 -26 8 -6 -4 -25 0
-44 8 l-34 14 -1 -35 c-1 -32 1 -35 21 -29 12 3 29 6 37 6 8 1 5 5 -8 11 -13
5 -28 7 -33 3 -5 -3 -9 0 -9 5 0 20 87 0 102 -23 12 -17 -63 -76 -97 -76 -8 0
-15 -4 -15 -10 0 -13 22 -13 57 2 15 6 33 12 38 12 6 1 10 6 10 13 0 6 12 22
27 36 23 21 25 29 19 59 -8 35 -37 87 -56 100 -5 4 0 8 13 8 31 0 28 16 -5 25
-15 3 -30 10 -33 15 -3 4 -20 11 -38 15 -33 7 -33 6 -21 -16z m126 -156 c-4
-3 -7 0 -7 7 0 7 3 10 7 7 3 -4 3 -10 0 -14z m-37 -88 c0 -3 -2 -5 -5 -5 -3 0
-5 2 -5 5 0 3 2 5 5 5 3 0 5 -2 5 -5z M662 1400 c0 -19 2 -27 5 -17 2 9 2 25
0 35 -3 9 -5 1 -5 -18z M1900 1410 c0 -7 3 -10 7 -7 3 4 3 10 0 14 -4 3 -7 0
-7 -7z M404 1398 c-4 -7 -3 -8 4 -4 12 7 16 16 8 16 -3 0 -8 -5 -12 -12z M503
1383 c4 -3 10 -3 14 0 3 4 0 7 -7 7 -7 0 -10 -3 -7 -7z M1910 1380 c0 -7 3
-10 7 -7 3 4 3 10 0 14 -4 3 -7 0 -7 -7z M1927 1368 c-4 -12 -4 -24 -2 -27 3
-2 5 1 5 8 0 7 4 10 9 7 5 -4 7 3 4 14 -7 25 -9 25 -16 -2z M1880 1375 c0 -3
2 -5 5 -5 3 0 5 2 5 5 0 3 -2 5 -5 5 -3 0 -5 -2 -5 -5z M6 1362 c-6 -10 23
-76 31 -68 3 3 15 -1 25 -11 38 -35 9 26 -34 69 -9 9 -19 14 -22 10z M1940
1329 c0 -5 5 -7 10 -4 6 3 10 8 10 11 0 2 -4 4 -10 4 -5 0 -10 -5 -10 -11z
M671 1314 c0 -11 3 -14 6 -6 3 7 2 16 -1 19 -3 4 -6 -2 -5 -13z M370 1304 c0
-7 52 -25 57 -20 2 2 -10 8 -26 14 -17 6 -31 9 -31 6z M1950 1291 c0 -5 5 -13
10 -16 6 -3 10 -2 10 4 0 5 -4 13 -10 16 -5 3 -10 2 -10 -4z M553 1283 c4 -3
10 -3 14 0 3 4 0 7 -7 7 -7 0 -10 -3 -7 -7z M630 1265 c0 -3 2 -5 5 -5 3 0 5
2 5 5 0 3 -2 5 -5 5 -3 0 -5 -2 -5 -5z M83 1223 c4 -3 10 -3 14 0 3 4 0 7 -7
7 -7 0 -10 -3 -7 -7z M680 1199 c0 -16 4 -28 9 -25 8 5 3 56 -5 56 -2 0 -4
-14 -4 -31z M396 1190 c4 -19 11 -44 15 -55 6 -14 7 -9 3 15 -4 19 -11 44 -15
55 -6 14 -7 9 -3 -15z M1535 1164 c-51 -45 -45 -59 12 -25 27 17 52 56 41 66
-1 1 -25 -17 -53 -41z M190 1190 c-8 -5 -26 -10 -40 -10 -22 -1 -23 -2 -7 -11
13 -7 22 -7 31 0 7 6 15 9 17 7 9 -10 59 -14 54 -5 -4 5 -15 9 -26 9 -11 0
-17 5 -14 10 8 12 4 12 -15 0z M1950 1195 c0 -3 2 -5 5 -5 3 0 5 2 5 5 0 3 -2
5 -5 5 -3 0 -5 -2 -5 -5z M280 1185 c0 -3 2 -5 5 -5 3 0 5 2 5 5 0 3 -2 5 -5
5 -3 0 -5 -2 -5 -5z M341 1174 c0 -11 3 -14 6 -6 3 7 2 16 -1 19 -3 4 -6 -2
-5 -13z M430 1170 c0 -7 3 -10 7 -7 3 4 3 10 0 14 -4 3 -7 0 -7 -7z M266 1156
c4 -9 -2 -13 -20 -11 -25 3 -76 -28 -76 -45 0 -5 12 2 27 16 27 25 45 25 23 0
-24 -30 -4 -36 28 -8 30 27 43 62 22 62 -5 0 -7 -6 -4 -14z M1860 1165 c0 -3
2 -5 5 -5 3 0 5 2 5 5 0 3 -2 5 -5 5 -3 0 -5 -2 -5 -5z M190 1155 c0 -3 2 -5
5 -5 3 0 5 2 5 5 0 3 -2 5 -5 5 -3 0 -5 -2 -5 -5z M381 1134 c0 -11 3 -14 6
-6 3 7 2 16 -1 19 -3 4 -6 -2 -5 -13z M440 1140 c0 -7 3 -10 7 -7 3 4 3 10 0
14 -4 3 -7 0 -7 -7z M1398 1139 c-19 -11 -24 -29 -8 -29 5 0 24 9 42 20 32 19
32 20 8 20 -14 0 -33 -5 -42 -11z M351 1124 c0 -11 3 -14 6 -6 3 7 2 16 -1 19
-3 4 -6 -2 -5 -13z M810 1130 c0 -7 3 -10 7 -7 3 4 3 10 0 14 -4 3 -7 0 -7 -7z
M270 1115 c0 -3 2 -5 5 -5 3 0 5 2 5 5 0 3 -2 5 -5 5 -3 0 -5 -2 -5 -5z M170
1070 c0 -7 3 -10 7 -7 3 4 3 10 0 14 -4 3 -7 0 -7 -7z M350 1065 c0 -3 2 -5 5
-5 3 0 5 2 5 5 0 3 -2 5 -5 5 -3 0 -5 -2 -5 -5z M450 1065 c0 -3 2 -5 5 -5 3
0 5 2 5 5 0 3 -2 5 -5 5 -3 0 -5 -2 -5 -5z M620 1065 c0 -3 2 -5 5 -5 3 0 5 2
5 5 0 3 -2 5 -5 5 -3 0 -5 -2 -5 -5z M720 1065 c0 -3 2 -5 5 -5 3 0 5 2 5 5 0
3 -2 5 -5 5 -3 0 -5 -2 -5 -5z M363 965 c0 -38 2 -53 4 -32 2 20 2 52 0 70 -2
17 -4 1 -4 -38z M2067 1007 c3 -15 9 -27 14 -27 13 0 11 13 -5 35 -13 18 -14
18 -9 -8z M1565 980 c-38 -16 -86 -29 -106 -29 -20 -1 -58 -8 -85 -16 -27 -8
-61 -15 -76 -15 -26 0 -46 -16 -34 -27 3 -3 32 0 63 7 32 7 85 16 118 21 66 9
207 61 213 78 6 17 -17 12 -93 -19z M1813 984 c-16 -17 -16 -31 -1 -40 7 -5 9
-2 5 8 -3 9 0 21 6 27 6 6 9 13 6 15 -2 2 -10 -2 -16 -10z M1970 995 c0 -3 2
-5 5 -5 3 0 5 2 5 5 0 3 -2 5 -5 5 -3 0 -5 -2 -5 -5z M1873 973 c4 -3 10 -3
14 0 3 4 0 7 -7 7 -7 0 -10 -3 -7 -7z M1970 960 c0 -11 -6 -20 -13 -20 -13 0
-43 -40 -39 -52 1 -5 -5 -8 -14 -8 -8 0 -13 -4 -9 -9 3 -5 -11 -15 -30 -22
-19 -7 -35 -18 -35 -24 0 -5 -5 -2 -11 7 -5 10 -17 15 -27 12 -13 -4 -12 -1 5
14 12 11 21 29 20 41 -1 21 -17 31 -17 10 0 -6 -9 -22 -20 -36 -11 -14 -18
-29 -15 -33 10 -16 -62 -154 -102 -198 -7 -7 -13 -20 -13 -28 0 -8 -6 -14 -12
-14 -9 0 -12 -15 -10 -50 4 -55 22 -59 22 -4 0 43 11 62 77 133 32 34 55 69
59 89 4 23 13 34 30 38 13 3 24 9 24 13 0 3 15 6 34 7 31 0 33 -2 29 -25 -2
-14 -5 -54 -6 -88 -2 -75 -17 -97 -17 -25 0 53 -13 69 -24 30 -8 -32 -7 -60 2
-55 4 3 7 -8 8 -24 1 -35 -4 -37 -15 -6 -8 20 -9 18 -9 -10 1 -21 5 -30 12
-26 6 4 2 -3 -8 -16 -14 -15 -16 -25 -9 -32 12 -12 12 -13 60 78 18 36 33 77
33 92 0 48 12 94 21 80 12 -20 23 59 12 84 -10 21 -10 21 -27 -11 -9 -17 -23
-32 -30 -32 -8 0 -23 -2 -33 -5 -10 -3 -3 2 14 11 18 10 35 26 39 36 3 10 10
18 15 18 5 0 9 8 10 18 0 12 3 10 10 -7 8 -20 12 -22 22 -11 8 8 9 14 1 16 -6
3 -8 18 -6 34 2 17 2 30 -2 30 -3 0 -6 -9 -6 -20z m-18 -108 c-6 -2 -9 -9 -6
-16 3 -7 -2 -13 -10 -13 -13 0 -13 4 1 31 11 21 18 26 21 17 3 -8 0 -17 -6
-19z m-152 -27 c0 -3 -2 -5 -5 -5 -3 0 -5 2 -5 5 0 3 2 5 5 5 3 0 5 -2 5 -5z
m-50 -80 c0 -3 -2 -5 -5 -5 -3 0 -5 2 -5 5 0 3 2 5 5 5 3 0 5 -2 5 -5z m167
-47 c-3 -7 -5 -2 -5 12 0 14 2 19 5 13 2 -7 2 -19 0 -25z m-67 -143 c0 -3 -2
-5 -5 -5 -3 0 -5 2 -5 5 0 3 2 5 5 5 3 0 5 -2 5 -5z M771 954 c0 -11 3 -14 6
-6 3 7 2 16 -1 19 -3 4 -6 -2 -5 -13z M721 934 c0 -11 3 -14 6 -6 3 7 2 16 -1
19 -3 4 -6 -2 -5 -13z M15 920 c3 -5 8 -10 11 -10 3 0 2 5 -1 10 -3 6 -8 10
-11 10 -3 0 -2 -4 1 -10z M770 925 c0 -3 2 -5 5 -5 3 0 5 2 5 5 0 3 -2 5 -5 5
-3 0 -5 -2 -5 -5z M1837 923 c-4 -3 -7 -13 -7 -22 1 -13 3 -13 11 2 11 19 8
33 -4 20z M740 904 c0 -8 -4 -12 -10 -9 -5 3 -10 -1 -10 -9 0 -10 6 -13 15
-10 13 6 22 44 10 44 -3 0 -5 -7 -5 -16z M556 897 c3 -10 9 -15 12 -12 3 3 0
11 -7 18 -10 9 -11 8 -5 -6z M30 890 c0 -5 5 -10 11 -10 5 0 7 5 4 10 -3 6 -8
10 -11 10 -2 0 -4 -4 -4 -10z M589 877 c13 -34 13 -37 2 -37 -5 0 -11 6 -14
13 -2 6 -3 5 -2 -3 2 -8 6 -24 11 -35 7 -18 6 -19 -9 -6 -15 12 -14 5 5 -45
12 -33 26 -60 30 -62 4 -2 5 -9 2 -17 -3 -8 3 -16 16 -20 19 -6 20 -11 14 -68
-4 -34 -7 -78 -7 -97 0 -19 -5 -38 -11 -42 -8 -5 -7 -14 2 -29 8 -11 9 -18 4
-15 -6 3 -10 -4 -11 -17 -4 -86 -14 -136 -24 -130 -8 4 -7 1 1 -9 7 -8 10 -22
6 -31 -3 -8 -1 -17 3 -20 5 -3 14 7 20 23 8 22 8 27 -2 24 -10 -4 -11 3 -4 36
5 23 7 45 5 49 -3 5 1 17 9 27 8 11 14 42 15 74 0 30 4 71 10 90 6 22 6 38 0
44 -6 6 -10 17 -10 26 0 12 2 12 9 1 20 -32 39 175 20 229 -5 16 -6 5 -2 -33
5 -50 3 -56 -11 -51 -11 4 -16 1 -16 -10 0 -9 -5 -16 -11 -16 -6 0 -9 9 -6 20
3 11 -1 27 -9 34 -8 8 -9 16 -4 18 10 3 -18 89 -33 105 -5 4 -3 -5 2 -20z m21
-52 c0 -3 -2 -5 -5 -5 -3 0 -5 2 -5 5 0 3 2 5 5 5 3 0 5 -2 5 -5z m-10 -50 c0
-3 -2 -5 -5 -5 -3 0 -5 2 -5 5 0 3 2 5 5 5 3 0 5 -2 5 -5z m22 -22 c-6 -2 -9
-10 -6 -15 4 -7 2 -8 -5 -4 -13 9 -5 26 12 25 9 0 8 -2 -1 -6z m58 -44 c0 -11
-4 -17 -10 -14 -5 3 -10 13 -10 21 0 8 5 14 10 14 6 0 10 -9 10 -21z m-30 -14
c0 -8 -4 -15 -10 -15 -5 0 -7 7 -4 15 4 8 8 15 10 15 2 0 4 -7 4 -15z m20 -30
c0 -3 -2 -5 -5 -5 -3 0 -5 2 -5 5 0 3 2 5 5 5 3 0 5 -2 5 -5z M1863 883 c4 -3
10 -3 14 0 3 4 0 7 -7 7 -7 0 -10 -3 -7 -7z M1991 890 c-1 -3 -4 -25 -6 -50
-4 -38 -3 -41 6 -20 5 13 8 36 6 50 -2 14 -5 23 -6 20z M800 870 c0 -7 3 -10
7 -7 3 4 3 10 0 14 -4 3 -7 0 -7 -7z M1582 855 c-34 -24 -110 -45 -163 -45
-18 0 -28 -4 -24 -10 18 -30 150 0 202 46 43 38 34 44 -15 9z M1840 875 c0 -3
2 -5 5 -5 3 0 5 2 5 5 0 3 -2 5 -5 5 -3 0 -5 -2 -5 -5z M0 862 c0 -5 7 -9 15
-9 8 0 12 4 9 9 -3 4 -9 8 -15 8 -5 0 -9 -4 -9 -8z M747 838 c-3 -22 0 -37 9
-44 8 -6 14 -18 14 -27 0 -25 11 -47 21 -41 5 3 9 10 9 15 0 6 -4 8 -9 5 -4
-3 -11 20 -14 51 -7 67 -22 89 -30 41z m20 -35 c-4 -3 -7 0 -7 7 0 7 3 10 7 7
3 -4 3 -10 0 -14z M70 855 c0 -3 2 -5 5 -5 3 0 5 2 5 5 0 3 -2 5 -5 5 -3 0 -5
-2 -5 -5z M95 850 c3 -5 8 -10 11 -10 2 0 4 5 4 10 0 6 -5 10 -11 10 -5 0 -7
-4 -4 -10z M806 835 c-3 -8 -1 -15 4 -15 6 0 10 7 10 15 0 8 -2 15 -4 15 -2 0
-6 -7 -10 -15z M240 815 c0 -3 2 -5 5 -5 3 0 5 2 5 5 0 3 -2 5 -5 5 -3 0 -5
-2 -5 -5z M801 794 c0 -11 3 -14 6 -6 3 7 2 16 -1 19 -3 4 -6 -2 -5 -13z M960
805 c0 -3 2 -5 5 -5 3 0 5 2 5 5 0 3 -2 5 -5 5 -3 0 -5 -2 -5 -5z M657 779 c4
-13 8 -18 11 -10 2 7 -1 18 -6 23 -8 8 -9 4 -5 -13z M980 792 c0 -4 14 -16 30
-25 17 -10 30 -15 30 -10 0 4 -14 16 -30 25 -17 9 -30 14 -30 10z M2335 780
c10 -11 20 -20 23 -20 3 0 -3 9 -13 20 -10 11 -20 20 -23 20 -3 0 3 -9 13 -20z
M1970 785 c0 -3 2 -5 5 -5 3 0 5 2 5 5 0 3 -2 5 -5 5 -3 0 -5 -2 -5 -5z M750
775 c0 -3 2 -5 5 -5 3 0 5 2 5 5 0 3 -2 5 -5 5 -3 0 -5 -2 -5 -5z M280 749 c0
-11 5 -17 10 -14 6 4 8 10 5 15 -3 4 1 11 7 13 8 3 6 6 -4 6 -12 1 -18 -6 -18
-20z M810 765 c0 -3 2 -5 5 -5 3 0 5 2 5 5 0 3 -2 5 -5 5 -3 0 -5 -2 -5 -5z
M1843 745 c-9 -24 1 -27 15 -5 8 13 8 20 2 20 -6 0 -13 -7 -17 -15z M310 745
c0 -3 2 -5 5 -5 3 0 5 2 5 5 0 3 -2 5 -5 5 -3 0 -5 -2 -5 -5z M750 745 c0 -3
2 -5 5 -5 3 0 5 2 5 5 0 3 -2 5 -5 5 -3 0 -5 -2 -5 -5z M810 745 c0 -3 2 -5 5
-5 3 0 5 2 5 5 0 3 -2 5 -5 5 -3 0 -5 -2 -5 -5z M90 735 c0 -3 2 -5 5 -5 3 0
5 2 5 5 0 3 -2 5 -5 5 -3 0 -5 -2 -5 -5z M228 719 c-31 -17 -19 -30 12 -14 17
9 30 18 30 20 0 8 -24 5 -42 -6z M310 720 c0 -7 3 -10 7 -7 3 4 3 10 0 14 -4
3 -7 0 -7 -7z M533 695 c0 -22 2 -30 4 -17 2 12 2 30 0 40 -3 9 -5 -1 -4 -23z
M1940 725 c0 -3 2 -5 5 -5 3 0 5 2 5 5 0 3 -2 5 -5 5 -3 0 -5 -2 -5 -5z M750
715 c0 -3 2 -5 5 -5 3 0 5 2 5 5 0 3 -2 5 -5 5 -3 0 -5 -2 -5 -5z M290 705 c0
-3 2 -5 5 -5 3 0 5 2 5 5 0 3 -2 5 -5 5 -3 0 -5 -2 -5 -5z M822 685 c0 -16 2
-22 5 -12 2 9 2 23 0 30 -3 6 -5 -1 -5 -18z M1818 685 c-3 -14 -1 -28 3 -31 5
-3 9 9 9 25 0 38 -6 40 -12 6z M58 693 c7 -3 16 -2 19 1 4 3 -2 6 -13 5 -11 0
-14 -3 -6 -6z M307 688 c-2 -7 -1 -22 4 -33 6 -16 8 -14 8 13 1 33 -4 41 -12
20z M452 670 c0 -19 2 -27 5 -17 2 9 2 25 0 35 -3 9 -5 1 -5 -18z M780 688 c0
-7 5 -20 10 -28 8 -12 10 -9 10 13 0 15 -4 27 -10 27 -5 0 -10 -6 -10 -12z
M920 695 c0 -3 2 -5 5 -5 3 0 5 2 5 5 0 3 -2 5 -5 5 -3 0 -5 -2 -5 -5z M940
690 c0 -7 3 -10 7 -7 3 4 3 10 0 14 -4 3 -7 0 -7 -7z M1960 695 c0 -3 2 -5 5
-5 3 0 5 2 5 5 0 3 -2 5 -5 5 -3 0 -5 -2 -5 -5z M750 685 c0 -3 2 -5 5 -5 3 0
5 2 5 5 0 3 -2 5 -5 5 -3 0 -5 -2 -5 -5z M1176 681 c17 -16 108 -60 139 -66
17 -4 -7 12 -52 34 -81 41 -106 49 -87 32z M1791 674 c0 -11 3 -14 6 -6 3 7 2
16 -1 19 -3 4 -6 -2 -5 -13z M1970 665 c-12 -31 -24 -33 -15 -2 7 22 7 22 -9
2 -18 -23 -21 -39 -5 -29 7 4 10 1 7 -7 -3 -8 -10 -13 -16 -12 -6 2 -9 -4 -5
-13 4 -11 11 -7 28 18 23 35 37 68 29 68 -2 0 -9 -11 -14 -25z M2070 669 c-12
-9 -12 -10 4 -5 16 5 17 2 11 -21 -8 -33 9 -20 20 15 7 24 -9 30 -35 11z M0
665 c0 -3 2 -5 5 -5 3 0 5 2 5 5 0 3 -2 5 -5 5 -3 0 -5 -2 -5 -5z M753 630 c0
-25 2 -35 4 -22 2 12 2 32 0 45 -2 12 -4 2 -4 -23z M953 663 c4 -3 10 -3 14 0
3 4 0 7 -7 7 -7 0 -10 -3 -7 -7z M2040 665 c0 -3 2 -5 5 -5 3 0 5 2 5 5 0 3
-2 5 -5 5 -3 0 -5 -2 -5 -5z M330 655 c0 -3 2 -5 5 -5 3 0 5 2 5 5 0 3 -2 5
-5 5 -3 0 -5 -2 -5 -5z M2220 650 c0 -5 7 -10 16 -10 8 0 12 5 9 10 -3 6 -10
10 -16 10 -5 0 -9 -4 -9 -10z M1780 640 c0 -7 3 -10 7 -7 3 4 3 10 0 14 -4 3
-7 0 -7 -7z M1798 638 c-4 -9 -4 -34 -1 -54 5 -31 8 -34 14 -17 4 11 4 35 0
54 -5 25 -9 29 -13 17z M2110 630 c0 -7 3 -10 7 -7 3 4 3 10 0 14 -4 3 -7 0
-7 -7z M2146 608 c21 -42 20 -41 34 -33 9 6 9 10 -1 16 -11 7 -10 9 4 9 10 0
20 -7 23 -15 4 -8 10 -12 15 -9 14 8 -13 43 -29 36 -8 -3 -19 2 -24 11 -5 10
-16 17 -24 17 -12 0 -12 -5 2 -32z m14 17 c0 -3 -2 -5 -5 -5 -3 0 -5 2 -5 5 0
3 2 5 5 5 3 0 5 -2 5 -5z M2260 635 c0 -3 2 -5 5 -5 3 0 5 2 5 5 0 3 -2 5 -5
5 -3 0 -5 -2 -5 -5z M306 623 c-11 -11 -7 -35 6 -27 8 5 9 0 6 -14 -4 -12 -2
-22 3 -22 5 0 9 13 9 29 0 30 -12 46 -24 34z M400 625 c0 -3 2 -5 5 -5 3 0 5
2 5 5 0 3 -2 5 -5 5 -3 0 -5 -2 -5 -5z M1967 609 c-4 -16 -3 -18 9 -8 7 6 11
15 8 20 -8 13 -11 11 -17 -12z M2237 622 c-4 -9 -3 -22 7 -50 6 -19 14 -23 32
-19 14 2 27 0 30 -5 3 -5 14 -6 23 -3 11 3 24 -2 32 -12 11 -15 11 -16 -1 -5
-19 16 -33 15 -27 -3 5 -11 1 -12 -19 -5 -32 13 -30 13 -48 -6 -9 -9 -16 -11
-16 -4 0 6 -4 8 -10 5 -17 -11 -11 -24 10 -20 12 2 26 -6 39 -23 11 -15 21
-21 21 -14 0 7 5 10 10 7 6 -3 10 1 10 10 0 12 -6 15 -22 10 -18 -6 -20 -4
-12 5 21 21 49 7 46 -23 -1 -15 5 -38 14 -52 15 -23 13 -30 -9 -26 -5 1 -6 -3
-2 -9 5 -8 11 -8 21 1 11 9 15 8 20 -5 8 -21 22 -20 27 2 2 9 3 4 1 -11 -2
-16 4 -43 13 -60 19 -37 53 -83 53 -72 0 5 -7 16 -15 25 -8 8 -17 36 -20 60
-3 25 -13 64 -22 88 -14 36 -18 40 -32 30 -14 -12 -14 -11 -2 4 7 10 11 24 8
32 -3 8 -1 17 6 20 7 3 6 5 -3 5 -36 -3 -43 1 -31 14 8 11 5 19 -12 35 -13 12
-26 20 -29 16 -4 -3 -9 4 -13 16 -5 16 -12 19 -28 15 -15 -4 -18 -3 -9 3 9 6
6 11 -12 20 -14 6 -27 8 -29 4z m50 -119 c-4 -3 -10 -3 -14 0 -3 4 0 7 7 7 7
0 10 -3 7 -7z m87 -41 c2 -4 1 -14 -3 -21 -6 -9 -10 -7 -14 8 -5 20 7 29 17
13z m23 -64 c-3 -8 -6 -5 -6 6 -1 11 2 17 5 13 3 -3 4 -12 1 -19z M2280 625
c0 -3 2 -5 5 -5 3 0 5 2 5 5 0 3 -2 5 -5 5 -3 0 -5 -2 -5 -5z M2410 624 c0 -6
7 -19 15 -30 8 -10 14 -14 14 -9 0 6 -6 19 -14 29 -8 11 -15 15 -15 10z M20
615 c0 -3 2 -5 5 -5 3 0 5 2 5 5 0 3 -2 5 -5 5 -3 0 -5 -2 -5 -5z M170 615 c0
-3 2 -5 5 -5 3 0 5 2 5 5 0 3 -2 5 -5 5 -3 0 -5 -2 -5 -5z M620 595 c0 -14 4
-25 9 -25 4 0 6 11 3 25 -2 14 -6 25 -8 25 -2 0 -4 -11 -4 -25z M880 615 c0
-3 2 -5 5 -5 3 0 5 2 5 5 0 3 -2 5 -5 5 -3 0 -5 -2 -5 -5z M1770 575 c-2 -27
-3 -66 -1 -86 1 -19 -3 -47 -8 -62 -6 -16 -7 -27 -1 -27 5 0 12 24 16 52 6 41
9 48 16 33 6 -16 7 -14 2 5 -4 14 -10 50 -14 80 l-7 55 -3 -50z m7 -72 c-4 -3
-7 0 -7 7 0 7 3 10 7 7 3 -4 3 -10 0 -14z M685 598 c-4 -10 -4 -43 -1 -75 3
-32 8 -89 10 -127 8 -113 16 -88 15 50 0 130 -9 187 -24 152z M1040 605 c0 -3
2 -5 5 -5 3 0 5 2 5 5 0 3 -2 5 -5 5 -3 0 -5 -2 -5 -5z M2091 596 c-14 -17 -5
-40 11 -30 6 4 14 0 19 -7 7 -10 9 -5 7 15 -3 34 -20 43 -37 22z m29 -6 c0 -5
-2 -10 -4 -10 -3 0 -8 5 -11 10 -3 6 -1 10 4 10 6 0 11 -4 11 -10z M145 590
c-3 -5 -14 -10 -25 -10 -10 0 -21 -7 -24 -16 -9 -23 -7 -36 3 -29 5 3 12 1 16
-4 11 -19 33 1 37 35 4 36 3 40 -7 24z M1686 569 c-3 -17 -5 -43 -5 -58 1 -14
5 -2 10 28 10 58 6 83 -5 30z M1910 595 c0 -3 2 -5 5 -5 3 0 5 2 5 5 0 3 -2 5
-5 5 -3 0 -5 -2 -5 -5z M170 557 c0 -19 3 -37 6 -40 10 -9 46 12 39 23 -3 6 1
7 9 4 18 -7 22 11 6 21 -6 4 -8 11 -5 16 4 5 -8 9 -24 9 -28 0 -31 -3 -31 -33z
m20 18 c0 -3 -2 -5 -5 -5 -3 0 -5 2 -5 5 0 3 2 5 5 5 3 0 5 -2 5 -5z m10 -39
c0 -3 -5 -8 -12 -12 -7 -4 -8 -3 -4 4 7 12 16 16 16 8z M583 583 c4 -3 10 -3
14 0 3 4 0 7 -7 7 -7 0 -10 -3 -7 -7z M835 580 c3 -5 8 -10 11 -10 3 0 2 5 -1
10 -3 6 -8 10 -11 10 -3 0 -2 -4 1 -10z M871 574 c0 -11 3 -14 6 -6 3 7 2 16
-1 19 -3 4 -6 -2 -5 -13z M1082 546 c18 -24 41 -59 51 -76 10 -18 21 -30 24
-26 4 3 -3 20 -15 36 -12 16 -22 34 -22 40 0 5 -4 10 -8 10 -4 0 -16 14 -25
30 -10 17 -23 30 -28 30 -5 0 5 -20 23 -44z M1670 580 c0 -7 3 -10 7 -7 3 4 3
10 0 14 -4 3 -7 0 -7 -7z M74 568 c-4 -7 -3 -8 4 -4 7 4 12 9 12 12 0 8 -9 4
-16 -8z M750 575 c0 -3 2 -5 5 -5 3 0 5 2 5 5 0 3 -2 5 -5 5 -3 0 -5 -2 -5 -5z
M771 564 c0 -11 3 -14 6 -6 3 7 2 16 -1 19 -3 4 -6 -2 -5 -13z M800 570 c0 -7
3 -10 7 -7 3 4 3 10 0 14 -4 3 -7 0 -7 -7z M1920 568 c0 -6 -8 -21 -17 -32
-18 -21 -18 -21 5 -2 31 27 27 8 -8 -33 -16 -19 -26 -39 -23 -45 4 -6 8 -4 11
4 3 8 8 17 11 20 21 18 50 59 56 80 7 25 7 25 -10 5 -14 -17 -16 -17 -11 -2 3
9 1 17 -4 17 -6 0 -10 -5 -10 -12z M3 563 c4 -3 10 -3 14 0 3 4 0 7 -7 7 -7 0
-10 -3 -7 -7z M30 565 c0 -3 2 -5 5 -5 3 0 5 2 5 5 0 3 -2 5 -5 5 -3 0 -5 -2
-5 -5z M512 543 c-11 -29 -23 -128 -15 -119 6 6 32 140 28 144 -1 1 -7 -10
-13 -25z M1900 565 c0 -3 2 -5 5 -5 3 0 5 2 5 5 0 3 -2 5 -5 5 -3 0 -5 -2 -5
-5z M2440 565 c0 -3 2 -5 5 -5 3 0 5 2 5 5 0 3 -2 5 -5 5 -3 0 -5 -2 -5 -5z
M830 546 c0 -19 -16 -21 -23 -3 -3 6 -6 -15 -6 -47 -1 -64 7 -73 11 -13 1 23
7 37 15 37 9 0 12 -8 8 -22 -3 -13 -7 -57 -10 -98 -2 -41 -5 -75 -6 -75 -1 0
-3 -20 -5 -45 -1 -25 -5 -56 -8 -70 -3 -14 -8 -37 -12 -52 -3 -17 -10 -25 -19
-22 -11 4 -14 -10 -14 -66 0 -65 1 -71 14 -54 13 17 14 17 9 2 -5 -14 -1 -18
15 -18 12 0 21 3 21 8 0 4 2 52 5 107 2 55 13 140 24 190 28 124 25 242 -7
253 -6 2 -12 -3 -12 -12z m-50 -501 c0 -3 -2 -5 -5 -5 -3 0 -5 2 -5 5 0 3 2 5
5 5 3 0 5 -2 5 -5z M1709 543 c0 -10 -4 -44 -8 -76 -4 -31 -4 -54 0 -50 8 10
22 143 14 143 -3 0 -5 -8 -6 -17z M2208 553 c6 -2 18 -2 25 0 6 3 1 5 -13 5
-14 0 -19 -2 -12 -5z M13 533 c4 -3 10 -3 14 0 3 4 0 7 -7 7 -7 0 -10 -3 -7
-7z M70 535 c0 -3 2 -5 5 -5 3 0 5 2 5 5 0 3 -2 5 -5 5 -3 0 -5 -2 -5 -5z
M255 530 c-28 -27 -73 -59 -76 -55 -3 2 -26 5 -52 6 -26 2 -47 6 -47 9 0 8
-49 4 -58 -4 -3 -3 -2 -9 2 -13 4 -4 10 -2 14 4 11 17 28 2 36 -30 6 -24 9
-27 21 -17 8 7 15 19 15 26 0 9 12 14 36 14 21 0 33 -4 29 -10 -3 -5 -12 -10
-19 -10 -8 0 -20 -8 -27 -17 -13 -16 -12 -17 4 -4 9 8 20 11 23 8 3 -3 -7 -14
-23 -24 -45 -29 -73 -56 -73 -69 0 -8 -6 -11 -14 -8 -9 3 -13 -2 -12 -17 1
-22 26 -41 26 -20 0 6 -6 11 -12 11 -9 0 -8 4 2 10 18 12 33 13 26 2 -3 -5 8
-6 25 -4 16 2 31 7 34 11 2 4 -10 5 -27 3 -41 -6 -36 29 7 43 17 6 37 14 45
20 8 5 23 8 34 6 11 -1 16 2 11 8 -3 6 -10 9 -15 6 -5 -3 -11 -1 -15 5 -3 5
-1 10 5 10 6 0 9 4 5 9 -11 18 31 32 45 16 17 -21 34 -19 25 3 -16 37 -17 50
-3 49 41 -1 51 3 38 18 -14 17 -21 18 -35 5z M580 506 c0 -20 2 -36 4 -36 8 0
12 61 4 66 -4 3 -8 -11 -8 -30z M1860 535 c0 -3 2 -5 5 -5 3 0 5 2 5 5 0 3 -2
5 -5 5 -3 0 -5 -2 -5 -5z M525 473 c-4 -32 -11 -78 -16 -103 -13 -60 -18 -188
-9 -225 4 -16 8 -22 9 -12 0 9 6 17 12 17 8 0 9 16 5 51 -5 38 -4 49 5 44 8
-6 10 3 5 31 -3 22 -7 44 -7 49 -1 6 1 54 5 108 7 106 1 131 -9 40z m2 -205
c-3 -8 -6 -5 -6 6 -1 11 2 17 5 13 3 -3 4 -12 1 -19z M950 518 c0 -9 5 -20 11
-23 17 -11 18 -2 3 19 -12 17 -14 17 -14 4z M1658 510 c-4 -14 -10 -61 -14
-105 -4 -44 -8 -75 -10 -70 -1 6 -7 37 -14 70 -7 33 -17 64 -22 70 -4 5 -8 18
-8 29 0 10 -3 17 -6 13 -3 -3 2 -43 11 -89 9 -46 23 -114 31 -153 7 -38 28
-116 46 -172 l33 -103 42 2 43 1 -42 76 c-39 69 -42 83 -46 163 -3 56 -8 85
-15 81 -6 -4 -8 -42 -4 -106 4 -55 5 -98 2 -96 -9 10 -41 148 -33 143 6 -4 9
22 7 67 -1 41 1 86 5 100 4 14 6 43 4 65 -3 34 -4 36 -10 14z m-11 -222 c-3
-8 -6 -5 -6 6 -1 11 2 17 5 13 3 -3 4 -12 1 -19z m53 -183 c0 -3 -2 -5 -5 -5
-3 0 -5 2 -5 5 0 3 2 5 5 5 3 0 5 -2 5 -5z m60 -80 c0 -3 -2 -5 -5 -5 -3 0 -5
2 -5 5 0 3 2 5 5 5 3 0 5 -2 5 -5z M2144 515 c3 -9 6 -21 6 -26 0 -6 5 -7 10
-4 6 3 10 1 10 -4 0 -6 5 -11 10 -11 7 0 7 6 1 18 -5 9 -9 22 -9 27 -1 6 -9
12 -18 14 -12 2 -15 -2 -10 -14z M1736 468 c-3 -29 -9 -64 -13 -77 -5 -19 -3
-23 9 -19 13 6 13 2 2 -30 -7 -21 -13 -55 -13 -77 1 -37 2 -35 14 20 6 33 15
67 19 76 4 10 3 20 -2 23 -6 3 -7 34 -4 71 6 78 -3 87 -12 13z M1840 515 c0
-3 2 -5 5 -5 3 0 5 2 5 5 0 3 -2 5 -5 5 -3 0 -5 -2 -5 -5z M441 494 c0 -11 3
-14 6 -6 3 7 2 16 -1 19 -3 4 -6 -2 -5 -13z M1870 505 c0 -3 2 -5 5 -5 3 0 5
2 5 5 0 3 -2 5 -5 5 -3 0 -5 -2 -5 -5z M2201 494 c0 -11 3 -14 6 -6 3 7 2 16
-1 19 -3 4 -6 -2 -5 -13z M601 470 c-1 -8 -4 -26 -7 -40 -5 -22 -4 -23 6 -7 6
10 9 28 7 40 -2 12 -5 15 -6 7z M733 366 c4 -69 11 -124 18 -130 8 -8 10 0 5
34 -3 25 -9 81 -11 124 -3 44 -8 82 -12 85 -3 4 -3 -48 0 -113z M944 414 c19
-59 46 -86 46 -47 0 24 -39 100 -54 106 -10 4 -7 -12 8 -59z M1840 470 c0 -7
3 -10 7 -7 3 4 3 10 0 14 -4 3 -7 0 -7 -7z M2410 475 c0 -3 2 -5 5 -5 3 0 5 2
5 5 0 3 -2 5 -5 5 -3 0 -5 -2 -5 -5z M661 445 c0 -16 4 -39 9 -50 7 -16 9 -14
9 15 0 19 -4 42 -9 50 -7 11 -10 8 -9 -15z M2127 448 c-4 -14 0 -27 11 -35 16
-13 15 -14 -5 -10 -28 6 -29 -7 -3 -33 11 -11 20 -26 20 -34 0 -8 5 -18 10
-21 6 -4 25 -30 44 -58 36 -57 82 -105 70 -74 -3 9 -11 17 -16 17 -6 0 -8 7
-4 15 3 8 2 15 -3 15 -5 0 -16 12 -26 26 -9 15 -12 23 -6 20 16 -10 13 10 -4
24 -9 7 -14 29 -13 58 1 75 -5 92 -11 29 -3 -31 -10 -56 -16 -55 -5 2 -8 9 -7
16 2 8 -3 21 -10 30 -10 12 -10 14 0 8 8 -5 12 0 12 13 0 12 -4 21 -10 21 -5
0 -10 9 -10 19 0 28 -17 35 -23 9z m13 -63 c0 -3 -2 -5 -5 -5 -3 0 -5 2 -5 5
0 3 2 5 5 5 3 0 5 -2 5 -5z M2210 460 c0 -7 3 -10 7 -7 3 4 3 10 0 14 -4 3 -7
0 -7 -7z M2250 462 c0 -5 9 -17 20 -27 11 -10 20 -15 20 -12 0 4 -9 16 -20 27
-11 11 -20 16 -20 12z M36 426 c-17 -40 -16 -53 4 -41 6 4 9 13 6 21 -3 8 0
11 10 7 15 -6 17 2 5 32 -7 18 -10 15 -25 -19z M1900 455 c0 -3 2 -5 5 -5 3 0
5 2 5 5 0 3 -2 5 -5 5 -3 0 -5 -2 -5 -5z M2074 440 c3 -14 6 -35 6 -47 0 -16
6 -23 18 -22 9 0 12 3 5 5 -7 3 -10 11 -7 19 3 7 -2 26 -11 42 -16 27 -16 27
-11 3z M2430 451 c0 -6 4 -13 10 -16 6 -3 7 1 4 9 -7 18 -14 21 -14 7z M551
425 c0 -16 -4 -41 -6 -55 l-6 -25 11 25 c6 13 9 38 7 55 l-4 30 -2 -30z M2160
440 c0 -7 3 -10 7 -7 3 4 3 10 0 14 -4 3 -7 0 -7 -7z M3 433 c4 -3 10 -3 14 0
3 4 0 7 -7 7 -7 0 -10 -3 -7 -7z M571 424 c0 -11 3 -14 6 -6 3 7 2 16 -1 19
-3 4 -6 -2 -5 -13z M1830 430 c0 -7 3 -10 7 -7 3 4 3 10 0 14 -4 3 -7 0 -7 -7z
M1890 430 c0 -7 3 -10 7 -7 3 4 3 10 0 14 -4 3 -7 0 -7 -7z M2220 431 c0 -5 5
-13 10 -16 6 -3 10 -2 10 4 0 5 -4 13 -10 16 -5 3 -10 2 -10 -4z M1810 425 c0
-3 2 -5 5 -5 3 0 5 2 5 5 0 3 -2 5 -5 5 -3 0 -5 -2 -5 -5z M1860 398 c0 -18 4
-39 9 -47 5 -8 8 3 7 33 -1 52 -16 64 -16 14z M2262 400 c0 -14 2 -19 5 -12 2
6 2 18 0 25 -3 6 -5 1 -5 -13z M2290 405 c-11 -13 -11 -18 0 -28 10 -9 11 -9
6 1 -4 7 -2 19 4 27 7 8 10 15 7 15 -2 0 -10 -7 -17 -15z M2450 415 c0 -3 2
-5 5 -5 3 0 5 2 5 5 0 3 -2 5 -5 5 -3 0 -5 -2 -5 -5z M592 375 c0 -16 2 -22 5
-12 2 9 2 23 0 30 -3 6 -5 -1 -5 -18z M1018 387 c14 -16 41 -178 38 -229 -1
-21 2 -38 6 -38 5 0 8 5 8 11 0 5 4 8 9 4 9 -5 8 27 -4 138 -7 56 -32 114 -53
122 -11 4 -12 2 -4 -8z M1688 370 c-3 -22 -2 -27 8 -19 6 5 10 19 7 29 -7 27
-10 25 -15 -10z M2060 395 c0 -3 2 -5 5 -5 3 0 5 2 5 5 0 3 -2 5 -5 5 -3 0 -5
-2 -5 -5z M2215 390 c-3 -6 1 -17 9 -26 15 -14 16 -13 16 10 0 26 -13 35 -25
16z M2310 395 c0 -3 2 -5 5 -5 3 0 5 2 5 5 0 3 -2 5 -5 5 -3 0 -5 -2 -5 -5z
M2460 386 c0 -8 4 -17 9 -20 5 -4 7 3 4 14 -6 23 -13 26 -13 6z M1780 380 c0
-7 3 -10 7 -7 3 4 3 10 0 14 -4 3 -7 0 -7 -7z M1816 318 c6 -60 29 -143 45
-162 4 -5 -1 19 -12 54 -10 34 -19 84 -19 110 0 27 -4 52 -10 55 -6 4 -8 -16
-4 -57z M200 350 c-6 -11 -23 -26 -38 -34 l-27 -15 37 1 c28 1 42 7 53 24 13
21 13 23 0 18 -8 -4 -15 -2 -15 4 0 6 6 13 13 15 9 4 9 6 0 6 -7 1 -17 -8 -23
-19z m7 -37 c-4 -3 -7 0 -7 7 0 7 3 10 7 7 3 -4 3 -10 0 -14z M371 354 c0 -11
3 -14 6 -6 3 7 2 16 -1 19 -3 4 -6 -2 -5 -13z M2250 366 c0 -2 8 -10 18 -17
15 -13 16 -12 3 4 -13 16 -21 21 -21 13z M100 355 c0 -3 2 -5 5 -5 3 0 5 2 5
5 0 3 -2 5 -5 5 -3 0 -5 -2 -5 -5z M260 350 c0 -7 3 -10 7 -7 3 4 3 10 0 14
-4 3 -7 0 -7 -7z M289 350 c-11 -7 -10 -12 4 -28 22 -24 10 -38 -14 -16 -19
17 -50 16 -56 -3 -5 -14 53 -46 70 -39 7 2 4 5 -6 5 -10 1 -15 6 -12 11 4 6
10 8 15 5 5 -3 11 -1 15 5 10 17 21 11 22 -12 2 -28 27 -44 32 -21 2 10 -2 19
-8 21 -5 2 -13 19 -17 37 -6 36 -22 48 -45 35z m-39 -45 c0 -3 -2 -5 -5 -5 -3
0 -5 2 -5 5 0 3 2 5 5 5 3 0 5 -2 5 -5z m30 -9 c0 -3 -4 -8 -10 -11 -5 -3 -10
-1 -10 4 0 6 5 11 10 11 6 0 10 -2 10 -4z M556 334 c-4 -14 -5 -28 -3 -31 3
-2 8 8 11 23 4 14 5 28 3 31 -3 2 -8 -8 -11 -23z M657 345 c-4 -8 -2 -17 3
-20 6 -4 10 3 10 14 0 25 -6 27 -13 6z M2105 350 c-3 -5 -1 -10 4 -10 6 0 11
5 11 10 0 6 -2 10 -4 10 -3 0 -8 -4 -11 -10z M2315 350 c3 -5 8 -10 11 -10 3
0 2 5 -1 10 -3 6 -8 10 -11 10 -3 0 -2 -4 1 -10z M2345 350 c3 -5 8 -10 11
-10 3 0 2 5 -1 10 -3 6 -8 10 -11 10 -3 0 -2 -4 1 -10z M387 335 c-4 -8 -2
-17 3 -20 6 -4 10 3 10 14 0 25 -6 27 -13 6z M683 285 c0 -38 2 -53 4 -32 2
20 2 52 0 70 -2 17 -4 1 -4 -38z M1760 345 c0 -3 2 -5 5 -5 3 0 5 2 5 5 0 3
-2 5 -5 5 -3 0 -5 -2 -5 -5z M2080 345 c0 -3 2 -5 5 -5 3 0 5 2 5 5 0 3 -2 5
-5 5 -3 0 -5 -2 -5 -5z M2470 345 c0 -3 2 -5 5 -5 3 0 5 2 5 5 0 3 -2 5 -5 5
-3 0 -5 -2 -5 -5z M590 335 c0 -3 2 -5 5 -5 3 0 5 2 5 5 0 3 -2 5 -5 5 -3 0
-5 -2 -5 -5z M1895 330 c3 -5 8 -10 11 -10 2 0 4 5 4 10 0 6 -5 10 -11 10 -5
0 -7 -4 -4 -10z M2170 335 c0 -3 2 -5 5 -5 3 0 5 2 5 5 0 3 -2 5 -5 5 -3 0 -5
-2 -5 -5z M2215 330 c-3 -5 5 -21 19 -34 14 -13 26 -28 26 -35 0 -14 17 -15
25 -1 3 6 -1 13 -10 16 -9 4 -14 13 -11 20 3 8 1 15 -4 15 -6 1 -16 2 -22 3
-7 1 -12 7 -10 14 3 15 -5 16 -13 2z m35 -25 c0 -3 -2 -5 -5 -5 -3 0 -5 2 -5
5 0 3 2 5 5 5 3 0 5 -2 5 -5z M10 320 c0 -7 3 -10 7 -7 3 4 3 10 0 14 -4 3 -7
0 -7 -7z M1758 312 c-4 -12 -2 -25 4 -28 15 -10 19 1 10 26 l-9 24 -5 -22z
M2110 325 c0 -3 2 -5 5 -5 3 0 5 2 5 5 0 3 -2 5 -5 5 -3 0 -5 -2 -5 -5z M2310
325 c0 -3 2 -5 5 -5 3 0 5 2 5 5 0 3 -2 5 -5 5 -3 0 -5 -2 -5 -5z M350 300 c0
-7 3 -10 7 -7 3 4 3 10 0 14 -4 3 -7 0 -7 -7z M1852 290 c0 -14 4 -36 8 -50
11 -34 11 3 0 45 -7 27 -8 27 -8 5z M1871 294 c0 -11 3 -14 6 -6 3 7 2 16 -1
19 -3 4 -6 -2 -5 -13z M1931 294 c0 -11 3 -14 6 -6 3 7 2 16 -1 19 -3 4 -6 -2
-5 -13z M2040 298 c0 -9 5 -20 10 -23 13 -8 13 5 0 25 -8 13 -10 13 -10 -2z
M2284 298 c-4 -7 -3 -8 4 -4 7 4 12 9 12 12 0 8 -9 4 -16 -8z M2480 300 c0 -7
3 -10 7 -7 3 4 3 10 0 14 -4 3 -7 0 -7 -7z M0 295 c0 -3 2 -5 5 -5 3 0 5 2 5
5 0 3 -2 5 -5 5 -3 0 -5 -2 -5 -5z M86 281 c-17 -11 -34 -17 -40 -14 -5 4 -7
-1 -3 -11 4 -9 3 -15 -2 -12 -4 3 -16 -3 -26 -14 -17 -19 -17 -20 -1 -20 10 0
15 -5 11 -12 -4 -7 1 -4 10 7 15 20 16 20 21 -3 4 -12 10 -20 14 -17 5 3 5 18
0 34 -7 26 -5 30 16 35 13 4 24 11 24 16 0 6 6 10 13 10 9 0 12 -10 9 -31 -4
-24 -2 -30 8 -24 10 6 11 4 6 -11 -5 -10 -10 -28 -12 -39 -4 -17 -3 -16 7 3 9
16 17 21 28 16 24 -11 103 -5 95 7 -2 4 2 10 8 12 9 4 8 6 -2 6 -8 1 -28 -6
-44 -14 -37 -20 -36 -20 -36 21 0 39 -4 38 70 19 24 -6 23 -5 -3 10 -53 31
-85 22 -78 -22 3 -24 -16 -21 -28 3 -9 20 -9 30 0 40 7 9 8 14 1 14 -6 0 -16
2 -24 5 -7 3 -26 -4 -42 -14z M570 295 c0 -3 2 -5 5 -5 3 0 5 2 5 5 0 3 -2 5
-5 5 -3 0 -5 -2 -5 -5z M1991 284 c0 -11 3 -14 6 -6 3 7 2 16 -1 19 -3 4 -6
-2 -5 -13z M2310 295 c0 -3 2 -5 5 -5 3 0 5 2 5 5 0 3 -2 5 -5 5 -3 0 -5 -2
-5 -5z M630 285 c0 -3 2 -5 5 -5 3 0 5 2 5 5 0 3 -2 5 -5 5 -3 0 -5 -2 -5 -5z
M1790 285 c0 -3 2 -5 5 -5 3 0 5 2 5 5 0 3 -2 5 -5 5 -3 0 -5 -2 -5 -5z M422
209 c-1 -46 4 -93 13 -119 8 -23 15 -53 15 -66 0 -19 5 -24 25 -24 14 0 26 6
26 13 5 42 3 94 -3 90 -5 -2 -8 -12 -8 -21 0 -15 -2 -15 -10 -2 -5 8 -7 23 -4
32 4 12 1 16 -8 13 -9 -4 -14 7 -15 37 -2 23 -7 44 -12 47 -5 4 -11 22 -14 41
-2 19 -5 1 -5 -41z m28 -64 c0 -3 -2 -5 -5 -5 -3 0 -5 2 -5 5 0 3 2 5 5 5 3 0
5 -2 5 -5z m30 -110 c0 -3 -2 -5 -5 -5 -3 0 -5 2 -5 5 0 3 2 5 5 5 3 0 5 -2 5
-5z M2390 269 c0 -8 12 -27 26 -44 l26 -30 -23 40 c-28 51 -29 51 -29 34z
M560 259 c0 -5 5 -7 10 -4 6 3 10 8 10 11 0 2 -4 4 -10 4 -5 0 -10 -5 -10 -11z
M774 256 c-3 -8 -4 -31 -2 -52 3 -36 4 -35 8 14 5 53 4 63 -6 38z M1760 258
c0 -4 7 -8 15 -8 8 0 15 4 15 8 0 5 -7 9 -15 9 -8 0 -15 -4 -15 -9z M1881 254
c0 -11 3 -14 6 -6 3 7 2 16 -1 19 -3 4 -6 -2 -5 -13z M2236 257 c3 -10 9 -15
12 -12 3 3 0 11 -7 18 -10 9 -11 8 -5 -6z M0 255 c0 -3 2 -5 5 -5 3 0 5 2 5 5
0 3 -2 5 -5 5 -3 0 -5 -2 -5 -5z M442 240 c0 -14 2 -19 5 -12 2 6 2 18 0 25
-3 6 -5 1 -5 -13z M663 225 c0 -22 2 -30 4 -17 2 12 2 30 0 40 -3 9 -5 -1 -4
-23z M1990 255 c0 -3 2 -5 5 -5 3 0 5 2 5 5 0 3 -2 5 -5 5 -3 0 -5 -2 -5 -5z
M581 234 c0 -11 3 -14 6 -6 3 7 2 16 -1 19 -3 4 -6 -2 -5 -13z M2060 240 c0
-7 3 -10 7 -7 3 4 3 10 0 14 -4 3 -7 0 -7 -7z M2280 240 c0 -5 10 -10 23 -10
18 0 19 2 7 10 -19 13 -30 13 -30 0z M1758 222 c-4 -12 -2 -22 3 -22 4 0 8
-15 7 -34 -1 -35 64 -166 82 -166 14 0 13 2 -16 54 -14 25 -22 46 -17 46 4 0
4 4 -2 8 -5 4 -19 18 -30 32 l-20 25 23 -19 c26 -22 42 -15 18 9 -18 18 -21
30 -6 20 6 -3 10 1 10 9 0 8 -4 17 -10 21 -5 3 -7 12 -3 20 3 8 0 15 -7 15 -6
0 -8 -4 -5 -10 3 -5 2 -10 -4 -10 -5 0 -11 6 -13 12 -3 7 -7 2 -10 -10z M1910
230 c0 -7 3 -10 7 -7 3 4 3 10 0 14 -4 3 -7 0 -7 -7z M541 210 c0 -8 4 -22 9
-30 12 -18 12 -2 0 25 -6 13 -9 15 -9 5z M560 215 c0 -3 2 -5 5 -5 3 0 5 2 5
5 0 3 -2 5 -5 5 -3 0 -5 -2 -5 -5z M951 212 c-1 -19 21 -106 29 -115 4 -5 4 9
0 30 -11 51 -28 101 -29 85z M2070 215 c0 -3 2 -5 5 -5 3 0 5 2 5 5 0 3 -2 5
-5 5 -3 0 -5 -2 -5 -5z M2270 215 c0 -3 2 -5 5 -5 3 0 5 2 5 5 0 3 -2 5 -5 5
-3 0 -5 -2 -5 -5z M2298 213 c7 -3 16 -2 19 1 4 3 -2 6 -13 5 -11 0 -14 -3 -6
-6z M293 203 c4 -3 10 -3 14 0 3 4 0 7 -7 7 -7 0 -10 -3 -7 -7z M630 203 c0
-6 8 -17 18 -24 16 -13 16 -13 2 6 -8 11 -16 22 -17 24 -2 2 -3 0 -3 -6z
M1732 179 c6 -16 12 -28 14 -26 5 5 -13 57 -20 57 -3 0 0 -14 6 -31z M1875
190 c12 -41 27 -60 20 -25 -4 17 -11 35 -17 40 -7 7 -8 2 -3 -15z M2460 205
c0 -3 2 -5 5 -5 3 0 5 2 5 5 0 3 -2 5 -5 5 -3 0 -5 -2 -5 -5z M615 180 c3 -5
8 -10 11 -10 3 0 2 5 -1 10 -3 6 -8 10 -11 10 -3 0 -2 -4 1 -10z M2005 180 c3
-5 8 -10 11 -10 2 0 4 5 4 10 0 6 -5 10 -11 10 -5 0 -7 -4 -4 -10z M2040 185
c0 -3 2 -5 5 -5 3 0 5 2 5 5 0 3 -2 5 -5 5 -3 0 -5 -2 -5 -5z M2470 183 c0
-15 19 -37 26 -31 3 4 -1 14 -10 23 -9 9 -16 13 -16 8z M270 175 c0 -3 2 -5 5
-5 3 0 5 2 5 5 0 3 -2 5 -5 5 -3 0 -5 -2 -5 -5z M590 175 c0 -3 2 -5 5 -5 3 0
5 2 5 5 0 3 -2 5 -5 5 -3 0 -5 -2 -5 -5z M1920 172 c0 -11 58 -159 67 -171 2
-2 5 -2 9 1 3 3 -13 46 -35 94 -22 49 -41 83 -41 76z M558 154 c-8 -7 2 -44
12 -44 4 0 5 11 2 25 -5 27 -6 28 -14 19z M595 150 c3 -5 8 -10 11 -10 2 0 4
5 4 10 0 6 -5 10 -11 10 -5 0 -7 -4 -4 -10z M770 155 c0 -3 2 -5 5 -5 3 0 5 2
5 5 0 3 -2 5 -5 5 -3 0 -5 -2 -5 -5z M620 140 c0 -7 3 -10 7 -7 3 4 3 10 0 14
-4 3 -7 0 -7 -7z M641 134 c0 -11 3 -14 6 -6 3 7 2 16 -1 19 -3 4 -6 -2 -5
-13z M700 140 c0 -7 3 -10 7 -7 3 4 3 10 0 14 -4 3 -7 0 -7 -7z M991 134 c0
-11 3 -14 6 -6 3 7 2 16 -1 19 -3 4 -6 -2 -5 -13z M103 133 c4 -3 10 -3 14 0
3 4 0 7 -7 7 -7 0 -10 -3 -7 -7z M330 135 c0 -3 2 -5 5 -5 3 0 5 2 5 5 0 3 -2
5 -5 5 -3 0 -5 -2 -5 -5z M526 132 c-3 -6 -4 -16 -2 -24 2 -7 7 -25 10 -40 4
-16 11 -28 17 -28 6 0 7 5 4 10 -4 6 -9 27 -11 47 -5 41 -9 49 -18 35z M1750
135 c0 -3 2 -5 5 -5 3 0 5 2 5 5 0 3 -2 5 -5 5 -3 0 -5 -2 -5 -5z M2470 135
c0 -3 2 -5 5 -5 3 0 5 2 5 5 0 3 -2 5 -5 5 -3 0 -5 -2 -5 -5z M1850 125 c0 -3
2 -5 5 -5 3 0 5 2 5 5 0 3 -2 5 -5 5 -3 0 -5 -2 -5 -5z M1900 120 c0 -7 3 -10
7 -7 3 4 3 10 0 14 -4 3 -7 0 -7 -7z M170 96 c0 -16 3 -26 7 -23 3 4 12 2 20
-4 19 -17 15 2 -7 31 l-20 25 0 -29z M360 115 c0 -3 2 -5 5 -5 3 0 5 2 5 5 0
3 -2 5 -5 5 -3 0 -5 -2 -5 -5z M620 115 c0 -5 5 -17 10 -25 5 -8 10 -10 10 -5
0 6 -5 17 -10 25 -5 8 -10 11 -10 5z M1070 105 c0 -3 2 -5 5 -5 3 0 5 2 5 5 0
3 -2 5 -5 5 -3 0 -5 -2 -5 -5z M1834 88 c2 -13 8 -33 15 -44 12 -19 12 -19 5
1 -3 11 -7 28 -8 37 -1 10 -5 20 -8 24 -4 3 -5 -5 -4 -18z M1876 83 c8 -18 20
-33 25 -33 6 0 9 -6 8 -12 -3 -24 1 -38 11 -38 6 0 8 11 4 28 -7 25 -6 26 11
12 17 -14 17 -14 0 20 -24 47 -28 50 -19 15 l7 -30 -32 35 -31 35 16 -32z
M2420 105 c0 -3 2 -5 5 -5 3 0 5 2 5 5 0 3 -2 5 -5 5 -3 0 -5 -2 -5 -5z M354
88 c-4 -7 -3 -8 4 -4 12 7 16 16 8 16 -3 0 -8 -5 -12 -12z M600 95 c0 -3 2 -5
5 -5 3 0 5 2 5 5 0 3 -2 5 -5 5 -3 0 -5 -2 -5 -5z M220 85 c0 -3 2 -5 5 -5 3
0 5 2 5 5 0 3 -2 5 -5 5 -3 0 -5 -2 -5 -5z M2046 75 c4 -8 10 -15 15 -15 4 0
6 7 3 15 -4 8 -10 15 -15 15 -4 0 -6 -7 -3 -15z M2352 46 c32 -43 48 -56 48
-37 0 13 -40 60 -61 72 -14 7 -11 -2 13 -35z M420 75 c0 -3 2 -5 5 -5 3 0 5 2
5 5 0 3 -2 5 -5 5 -3 0 -5 -2 -5 -5z M587 63 c-7 -12 4 -63 14 -63 5 0 6 15 2
33 -7 37 -9 41 -16 30z M1080 65 c0 -3 2 -5 5 -5 3 0 5 2 5 5 0 3 -2 5 -5 5
-3 0 -5 -2 -5 -5z M1100 50 c0 -7 3 -10 7 -7 3 4 3 10 0 14 -4 3 -7 0 -7 -7z
M2336 27 c18 -26 34 -35 34 -19 0 4 -13 16 -27 26 l-27 20 20 -27z M340 25
c-8 -9 -8 -15 -2 -15 12 0 26 19 19 26 -2 2 -10 -2 -17 -11z M417 26 c-4 -10
-5 -21 -2 -24 9 -9 17 6 13 25 -3 17 -4 17 -11 -1z M550 25 c0 -3 2 -5 5 -5 3
0 5 2 5 5 0 3 -2 5 -5 5 -3 0 -5 -2 -5 -5z M1876 17 c3 -10 9 -15 12 -12 3 3
0 11 -7 18 -10 9 -11 8 -5 -6z M990 10 c0 -7 3 -10 7 -7 3 4 3 10 0 14 -4 3
-7 0 -7 -7z M1940 10 c0 -7 3 -10 7 -7 3 4 3 10 0 14 -4 3 -7 0 -7 -7z"/>
</g>
</svg>
