<?xml version="1.0" standalone="no"?>
<!DOCTYPE svg PUBLIC "-//W3C//DTD SVG 20010904//EN"
 "http://www.w3.org/TR/2001/REC-SVG-20010904/DTD/svg10.dtd">
<svg version="1.0" xmlns="http://www.w3.org/2000/svg"
 width="250.000000pt" height="250.000000pt" viewBox="0 0 250.000000 250.000000"
 preserveAspectRatio="xMidYMid meet">
<metadata>
Created by potrace 1.16, written by Peter Selinger 2001-2019
</metadata>
<g transform="translate(0.000000,250.000000) scale(0.100000,-0.100000)"
fill="#00FF99" stroke="none">
<path d="M896 2488 c3 -4 1 -8 -5 -8 -5 0 -22 -12 -38 -27 -16 -16 -49 -46
-74 -68 -24 -22 -61 -64 -82 -92 -21 -28 -41 -53 -46 -55 -10 -4 -63 -117 -65
-138 -1 -8 -9 -29 -19 -47 -21 -40 -22 -85 -1 -126 11 -21 18 -63 20 -132 1
-55 9 -135 17 -177 8 -43 10 -78 6 -78 -5 0 -9 -9 -9 -19 0 -11 -4 -22 -10
-26 -6 -4 -6 -15 1 -32 5 -14 7 -28 4 -31 -3 -3 1 -15 9 -26 7 -12 16 -37 20
-56 11 -57 50 -175 60 -181 4 -4 5 -12 1 -19 -5 -9 -4 -11 3 -6 7 4 12 1 12
-8 0 -9 5 -16 10 -16 6 0 10 -7 10 -16 0 -8 4 -13 9 -9 8 5 24 -10 27 -25 1
-6 22 -59 33 -85 24 -53 21 -64 -30 -155 -5 -8 -17 -34 -28 -56 -22 -49 -31
-56 -76 -57 -19 0 -32 -5 -29 -9 3 -4 -3 -8 -13 -8 -10 0 -46 -9 -80 -20 -34
-10 -85 -22 -115 -25 -65 -7 -320 -72 -327 -83 -3 -5 -20 -14 -38 -21 -44 -18
-55 -34 -50 -73 4 -30 5 -31 12 -10 14 43 122 86 315 126 96 20 213 47 259 61
46 14 95 25 110 25 39 0 65 33 115 144 l44 98 -18 51 c-43 122 -58 151 -79
159 -25 9 -56 76 -77 166 -8 35 -23 85 -34 113 -25 62 -25 80 -1 101 20 17 20
18 0 85 -10 37 -22 117 -25 178 -5 84 -12 122 -29 162 l-24 52 26 68 c14 37
30 81 36 97 25 68 208 260 300 314 36 22 34 32 -8 30 -19 -1 -32 -5 -29 -10z
M1150 2480 c0 -20 55 -80 73 -80 4 0 27 -9 49 -20 23 -11 43 -18 46 -16 9 10
-13 29 -55 48 -25 11 -60 36 -79 55 -31 31 -34 33 -34 13z M1323 2493 c4 -3
10 -3 14 0 3 4 0 7 -7 7 -7 0 -10 -3 -7 -7z M1507 2471 c75 -42 101 -64 173
-151 136 -164 176 -298 167 -573 -5 -167 -5 -168 19 -194 28 -31 30 -66 9
-156 -8 -34 -21 -92 -30 -128 -8 -36 -19 -97 -24 -135 -16 -116 -61 -226 -134
-324 -50 -66 -66 -140 -39 -178 15 -21 78 -48 155 -66 28 -7 132 -63 330 -180
54 -32 115 -62 135 -68 47 -13 171 -80 205 -112 l27 -25 0 35 c0 31 -5 38 -52
67 -28 18 -55 31 -60 29 -4 -1 -8 2 -8 7 0 5 -21 17 -47 26 -27 9 -57 20 -68
25 -11 4 -24 8 -29 8 -5 0 -12 4 -15 9 -3 4 -41 26 -83 48 -42 22 -75 42 -73
45 2 3 -17 14 -41 25 -24 11 -44 23 -44 27 0 5 -6 8 -14 8 -8 0 -22 8 -32 17
-10 10 -19 17 -21 15 -2 -1 -22 7 -46 17 -23 11 -71 29 -107 40 -36 11 -61 20
-56 20 6 1 2 7 -9 14 -14 11 -16 21 -11 51 4 20 11 34 17 31 5 -4 9 1 9 10 0
9 5 13 10 10 6 -4 10 6 10 22 0 20 3 24 9 14 7 -10 11 -6 16 17 3 17 12 33 19
35 8 3 17 18 20 34 4 15 18 51 32 80 14 30 33 103 44 175 11 68 26 136 32 153
7 16 13 38 13 50 1 11 7 46 14 79 15 69 9 111 -22 145 -12 14 -14 19 -4 12 15
-12 17 -11 14 7 -2 12 -7 25 -12 29 -4 5 -5 2 0 -6 6 -10 4 -12 -5 -6 -12 7
-7 170 7 219 3 11 1 16 -5 13 -6 -4 -8 21 -6 65 2 50 -1 67 -7 57 -8 -10 -9
-4 -6 21 2 19 1 42 -4 50 -4 8 -15 45 -24 83 -10 37 -22 67 -27 67 -6 0 -4 8
3 17 9 10 9 14 2 10 -8 -5 -24 12 -47 47 -19 29 -39 57 -45 61 -6 3 -8 11 -5
17 4 6 2 8 -4 4 -6 -3 -13 2 -17 13 -6 19 -110 117 -149 138 -11 7 -41 12 -66
12 l-45 1 52 -29z m373 -456 c0 -3 -2 -5 -5 -5 -3 0 -5 2 -5 5 0 3 2 5 5 5 3
0 5 -2 5 -5z M1480 2412 c0 -13 29 -24 43 -15 7 4 8 0 4 -11 -5 -14 -3 -17 8
-12 8 3 15 1 15 -5 0 -5 11 -20 25 -33 14 -13 25 -29 25 -35 0 -7 6 -9 13 -5
9 5 9 4 1 -5 -8 -9 -18 -8 -40 4 -16 8 -50 15 -76 15 -26 0 -59 5 -74 10 -32
13 -253 12 -264 -1 -3 -3 -45 -13 -95 -22 -49 -10 -92 -22 -96 -29 -4 -6 -14
-8 -24 -5 -10 4 -14 3 -10 -4 4 -6 0 -9 -8 -7 -9 2 -16 -1 -16 -7 1 -14 -34
-24 -48 -13 -8 7 -15 -1 -22 -29 -6 -22 -27 -58 -47 -81 -19 -23 -34 -47 -32
-54 6 -16 48 -21 48 -5 1 15 66 86 114 122 46 35 128 63 265 91 107 21 118 22
195 8 44 -8 97 -14 116 -14 71 0 252 -125 237 -164 -4 -9 -2 -16 3 -16 6 0 10
-12 11 -27 0 -16 3 -22 6 -15 4 10 9 9 19 -5 10 -12 13 -13 9 -3 -2 8 -6 29
-8 45 -7 46 -67 140 -79 123 -7 -9 -8 -7 -5 9 3 14 -3 34 -16 50 -33 44 -100
113 -111 113 -5 0 -17 6 -25 14 -21 18 -61 30 -61 18z m160 -137 c0 -3 -2 -5
-5 -5 -3 0 -5 2 -5 5 0 3 2 5 5 5 3 0 5 -2 5 -5z M720 2405 c0 -3 2 -5 5 -5 3
0 5 2 5 5 0 3 -2 5 -5 5 -3 0 -5 -2 -5 -5z M1390 2395 c0 -3 2 -5 5 -5 3 0 5
2 5 5 0 3 -2 5 -5 5 -3 0 -5 -2 -5 -5z M1800 2255 c0 -3 2 -5 5 -5 3 0 5 2 5
5 0 3 -2 5 -5 5 -3 0 -5 -2 -5 -5z M880 2245 c0 -3 2 -5 5 -5 3 0 5 2 5 5 0 3
-2 5 -5 5 -3 0 -5 -2 -5 -5z M1815 2230 c3 -5 8 -10 11 -10 2 0 4 5 4 10 0 6
-5 10 -11 10 -5 0 -7 -4 -4 -10z M736 2061 c-17 -26 -52 -181 -42 -181 33 0
67 91 47 127 -7 14 -7 23 1 31 5 5 8 16 6 23 -4 11 -6 11 -12 0z M1760 2015
c0 -3 2 -5 5 -5 3 0 5 2 5 5 0 3 -2 5 -5 5 -3 0 -5 -2 -5 -5z M560 1825 c0 -3
2 -5 5 -5 3 0 5 2 5 5 0 3 -2 5 -5 5 -3 0 -5 -2 -5 -5z M1528 1767 c-32 -15
-48 -28 -48 -41 0 -17 5 -18 63 -11 34 4 89 11 121 14 69 7 63 18 -21 44 -62
20 -56 21 -115 -6z M670 1755 c0 -3 2 -5 5 -5 3 0 5 2 5 5 0 3 -2 5 -5 5 -3 0
-5 -2 -5 -5z M891 1730 c-61 -15 -111 -70 -56 -62 11 1 74 6 140 10 112 7 120
8 123 28 2 17 -4 23 -29 28 -41 8 -135 6 -178 -4z M570 1705 c0 -3 2 -5 5 -5
3 0 5 2 5 5 0 3 -2 5 -5 5 -3 0 -5 -2 -5 -5z M670 1615 c0 -3 2 -5 5 -5 3 0 5
2 5 5 0 3 -2 5 -5 5 -3 0 -5 -2 -5 -5z M1560 1599 c11 -8 8 -9 -13 -4 -19 4
-26 2 -22 -5 3 -5 1 -10 -4 -10 -6 0 -11 4 -11 10 0 6 -9 6 -22 1 -44 -16 -26
-36 37 -41 54 -5 62 -3 84 18 23 23 25 24 52 8 32 -19 62 -21 57 -4 -5 15 -84
38 -133 38 -31 0 -37 -3 -25 -11z M947 1551 c-32 -11 -64 -25 -73 -32 -23 -19
-1 -31 42 -23 22 4 33 9 27 11 -23 8 -14 23 14 23 21 0 24 -3 15 -12 -21 -21
-13 -26 25 -17 37 8 66 34 60 54 -6 17 -49 15 -110 -4z M1111 1544 c0 -11 3
-14 6 -6 3 7 2 16 -1 19 -3 4 -6 -2 -5 -13z M680 1540 c0 -7 3 -10 7 -7 3 4 3
10 0 14 -4 3 -7 0 -7 -7z M580 1525 c0 -3 2 -5 5 -5 3 0 5 2 5 5 0 3 -2 5 -5
5 -3 0 -5 -2 -5 -5z M1850 1525 c0 -3 2 -5 5 -5 3 0 5 2 5 5 0 3 -2 5 -5 5 -3
0 -5 -2 -5 -5z M560 1495 c0 -3 2 -5 5 -5 3 0 5 2 5 5 0 3 -2 5 -5 5 -3 0 -5
-2 -5 -5z M1900 1260 c0 -7 3 -10 7 -7 3 4 3 10 0 14 -4 3 -7 0 -7 -7z M1394
1236 c-16 -13 -17 -15 -3 -21 20 -8 72 12 64 25 -9 14 -38 12 -61 -4z M640
1225 c0 -3 2 -5 5 -5 3 0 5 2 5 5 0 3 -2 5 -5 5 -3 0 -5 -2 -5 -5z M1225 1219
c-4 -6 -5 -12 -4 -14 7 -7 59 8 59 16 0 13 -47 11 -55 -2z M733 1073 c4 -3 10
-3 14 0 3 4 0 7 -7 7 -7 0 -10 -3 -7 -7z M1435 1050 c-4 -6 -3 -9 2 -8 4 1 26
-7 47 -19 l40 -20 -25 -14 c-33 -19 -261 -19 -306 -1 -35 15 -73 3 -73 -23 0
-17 36 -39 44 -26 3 5 68 7 149 4 130 -5 148 -4 210 17 37 12 67 27 67 31 0 5
-24 20 -54 33 -76 34 -93 38 -101 26z M1190 1010 c0 -7 3 -10 7 -7 3 4 3 10 0
14 -4 3 -7 0 -7 -7z M1820 915 c0 -3 2 -5 5 -5 3 0 5 2 5 5 0 3 -2 5 -5 5 -3
0 -5 -2 -5 -5z M860 799 c0 -56 82 -168 302 -415 82 -91 90 -107 111 -238 15
-90 30 -91 63 -6 40 104 70 159 140 255 78 107 139 213 129 223 -4 4 -12 -2
-19 -12 -6 -11 -38 -56 -71 -100 -34 -45 -79 -108 -100 -141 -22 -33 -45 -65
-51 -72 -6 -6 -17 -32 -24 -57 -18 -67 -36 -76 -44 -24 -4 23 -10 47 -15 53
-4 5 -14 26 -21 45 -13 31 -69 97 -156 184 -17 17 -46 51 -65 76 -18 25 -44
56 -56 70 -13 14 -23 30 -23 37 0 7 -15 30 -33 50 -19 21 -41 49 -50 63 -12
16 -17 19 -17 9z M1740 750 c0 -7 3 -10 7 -7 3 4 3 10 0 14 -4 3 -7 0 -7 -7z
M693 653 c-36 -14 4 -139 84 -260 40 -61 63 -113 94 -210 60 -186 59 -183 81
-183 12 0 18 5 15 13 -3 6 -26 76 -51 154 -38 114 -58 159 -106 232 -65 100
-101 190 -93 234 5 26 1 30 -24 20z M1750 645 c0 -3 2 -5 5 -5 3 0 5 2 5 5 0
3 -2 5 -5 5 -3 0 -5 -2 -5 -5z M240 635 c0 -3 2 -5 5 -5 3 0 5 2 5 5 0 3 -2 5
-5 5 -3 0 -5 -2 -5 -5z M630 615 c0 -3 2 -5 5 -5 3 0 5 2 5 5 0 3 -2 5 -5 5
-3 0 -5 -2 -5 -5z M1690 540 c0 -57 -12 -98 -65 -235 -134 -344 -121 -305
-101 -305 16 0 17 3 57 118 37 109 61 162 72 162 5 0 7 7 4 15 -4 8 -2 17 3
20 13 8 60 165 60 201 0 17 -7 39 -15 50 -13 18 -14 16 -15 -26z M2230 415 c0
-3 2 -5 5 -5 3 0 5 2 5 5 0 3 -2 5 -5 5 -3 0 -5 -2 -5 -5z M2277 273 c-4 -3
11 -27 34 -52 53 -61 59 -68 59 -79 0 -5 8 -16 17 -23 15 -12 16 -12 10 4 -4
10 -7 22 -7 26 0 11 -79 115 -94 123 -7 4 -16 5 -19 1z M2400 90 c0 -7 3 -10
7 -7 3 4 3 10 0 14 -4 3 -7 0 -7 -7z M2410 55 c0 -3 2 -5 5 -5 3 0 5 2 5 5 0
3 -2 5 -5 5 -3 0 -5 -2 -5 -5z"/>
</g>
</svg>
